<?xml version="1.0" encoding="UTF-8"?>
<svg version="1.1" xmlns="http://www.w3.org/2000/svg" width="1024" height="1024">
<path d="M0 0 C337.92 0 675.84 0 1024 0 C1024 337.92 1024 675.84 1024 1024 C686.08 1024 348.16 1024 0 1024 C0 686.08 0 348.16 0 0 Z " fill="#FDFDFD" transform="translate(0,0)"/>
<path d="M0 0 C0.66 0 1.32 0 2 0 C23.58091679 60.6102344 25.18668577 129.18007915 8.72265625 191.26123047 C8.20917194 193.20726663 7.7107212 195.1572969 7.22265625 197.10986328 C6.41485052 200.31354737 5.55784162 203.50029856 4.6875 206.6875 C4.31661255 208.18627686 4.31661255 208.18627686 3.93823242 209.71533203 C2.03305616 216.36226742 2.03305616 216.36226742 -0.85717773 218.14648438 C-4.01751013 219.07415329 -6.25482063 219.20812393 -9.43359375 218.3203125 C-10.09488281 217.92585937 -10.75617188 217.53140625 -11.4375 217.125 C-17.15863108 214.20525034 -21.92683376 214.38536675 -28.125 215.625 C-37.10558122 219.92006058 -40.83150089 226.93861824 -44.09790039 236.06884766 C-45.1753227 239.39218212 -46.21497421 242.72573573 -47.25 246.0625 C-54.519564 268.51020768 -65.14855198 283.77267968 -82 300 C-82.33 300.33 -82.66 300.66 -83 301 C-64.02204693 289.46907841 -64.02204693 289.46907841 -50 273 C-49.34 273.33 -48.68 273.66 -48 274 C-51.33333333 279 -54.66666667 284 -58 289 C-58.66 289 -59.32 289 -60 289 C-60.22042969 289.55816406 -60.44085937 290.11632812 -60.66796875 290.69140625 C-75.57926654 316.53474054 -123.47258135 331.41365392 -150 340 C-111.80678765 333.62653742 -71.00002717 317.69568805 -47 286 C-46.2471875 285.04996094 -45.494375 284.09992188 -44.71875 283.12109375 C-39.62866804 276.65107074 -34.83749961 269.99938304 -30.125 263.25 C-29.23494263 261.97552002 -29.23494263 261.97552002 -28.3269043 260.67529297 C-25.43614653 256.52565047 -22.56403571 252.36454475 -19.71875 248.18359375 C-13.93941674 239.74974178 -8.60135977 232.73423985 0 227 C3.05603838 226.68166267 5.13335219 226.53778783 7.875 228 C10.06409965 231.89173271 9.38835183 236.36599724 8.390625 240.56396484 C7.51439414 243.46518184 6.55958992 246.32555119 5.5625 249.1875 C5.19979004 250.24412842 4.83708008 251.30075684 4.46337891 252.3894043 C-4.56108027 278.20755808 -16.27151109 304.22678069 -33 326 C-33.49290527 326.64936523 -33.98581055 327.29873047 -34.49365234 327.96777344 C-50.12225498 348.38888486 -68.59280229 365.26987673 -91 378 C-92.68222656 378.98033203 -92.68222656 378.98033203 -94.3984375 379.98046875 C-104.78765764 385.88249377 -115.76284762 390.01001291 -127 394 C-127.65983887 394.24347168 -128.31967773 394.48694336 -128.99951172 394.73779297 C-156.39027695 404.79955585 -187.67441961 407.42360224 -216.47314453 410.08618164 C-255.07315706 413.13091969 -255.07315706 413.13091969 -289.28515625 429.71484375 C-291 431 -291 431 -293 431 C-293.26554687 431.56332031 -293.53109375 432.12664062 -293.8046875 432.70703125 C-295.08809744 435.16899738 -296.57168286 437.38642321 -298.125 439.6875 C-304.92282964 450.28870823 -310.07694757 462.05017581 -314 474 C-317.29532306 468.56970205 -316.39393519 462.14945348 -316.375 456 C-316.37412384 455.31282898 -316.37324768 454.62565796 -316.37234497 453.91766357 C-316.24245205 422.81977031 -309.45389989 393.03467831 -296 365 C-295.63648438 364.24251465 -295.27296875 363.4850293 -294.8984375 362.70458984 C-284.6010346 341.61436042 -270.16450796 322.91743992 -254 306 C-253.16597656 305.12472656 -252.33195312 304.24945313 -251.47265625 303.34765625 C-246.60445076 298.35639975 -241.53266854 293.8062008 -236.08203125 289.4609375 C-233.84715793 287.67643789 -231.6414982 285.87426836 -229.44921875 284.0390625 C-209.00096709 267.00408787 -186.38483856 252.79256175 -164.11499023 238.28979492 C-150.94715595 229.7138208 -137.93591695 220.92177379 -125 212 C-124.24960449 211.48356934 -123.49920898 210.96713867 -122.72607422 210.43505859 C-113.05744077 203.76385181 -103.73226289 196.79371774 -94.64892578 189.34472656 C-93.17188608 188.14017597 -91.67873277 186.95544754 -90.18359375 185.7734375 C-82.33046075 179.52370126 -75.06398511 172.67374365 -67.81835938 165.73925781 C-66.2657052 164.2541466 -64.70407389 162.77843031 -63.140625 161.3046875 C-56.35669999 154.75841591 -50.63843015 147.52852109 -45 140 C-44.36191406 139.15695312 -43.72382812 138.31390625 -43.06640625 137.4453125 C-30.32568252 119.9672758 -22.83182871 100.65829997 -17 80 C-17.30550781 80.66902344 -17.61101562 81.33804688 -17.92578125 82.02734375 C-34.32213033 116.43658338 -62.51876749 146.40726597 -92 170 C-93.18940812 170.96930891 -94.37817556 171.93940434 -95.56640625 172.91015625 C-103.46876726 179.33682436 -111.52736945 185.34205448 -120 191 C-120.721875 190.2575 -121.44375 189.515 -122.1875 188.75 C-126.94969421 184.09363233 -130.5126726 181.60587952 -136.9375 179.6875 C-143.29590719 177.55246296 -146.3011859 175.54822115 -150 170 C-149.68675781 169.47148437 -149.37351562 168.94296875 -149.05078125 168.3984375 C-147.76895005 165.47262205 -147.58231573 162.79090561 -147.1875 159.625 C-146.25700271 155.27455978 -145.77697415 153.54544628 -142.08984375 150.95703125 C-138.625 149.4375 -138.625 149.4375 -135.2265625 148.24609375 C-131.27643261 146.72055933 -127.94156469 144.88312938 -126 141 C-125.49661236 137.72798035 -125.16446982 135.22229504 -127.10546875 132.3828125 C-130.86619312 128.79851717 -134.57103431 127.44404661 -139.5 125.9375 C-145.2547923 123.93124214 -147.24274545 121.85526333 -150 116.4375 C-150.474375 115.32246094 -150.94875 114.20742188 -151.4375 113.05859375 C-153.74056606 108.55034193 -156.5696413 106.58897123 -161.1875 104.6875 C-167.29906329 103.58541482 -173.21288295 103.77179526 -178.8125 106.6875 C-182.29676459 109.2152998 -184.59361208 111.42479509 -187 115 C-187.19889147 116.34981011 -187.36449181 117.70486136 -187.5 119.0625 C-187.8984375 121.12109375 -187.8984375 121.12109375 -189 123 C-192.13513096 124.62146458 -195.30101403 125.68354125 -198.6484375 126.796875 C-203.14283327 128.41024784 -206.81357713 130.39987029 -210 134 C-211.66132729 137.3781691 -211.66132729 137.3781691 -211 141 C-207.75471307 147.12998642 -202.35222367 149.84844037 -196 152 C-194.88625 152.20625 -193.7725 152.4125 -192.625 152.625 C-190 154 -190 154 -188.96875 156.34375 C-188.19836867 158.88315513 -187.5460543 161.40384711 -187 164 C-188.13932292 165.10677083 -189.27864583 166.21354167 -190.41796875 167.3203125 C-192.18382764 169.11306637 -192.18382764 169.11306637 -194.01953125 171.8984375 C-198.11500618 176.85575608 -204.50206655 178.37422857 -210.33984375 180.56640625 C-217.23735466 183.2960595 -220.80758753 185.71730608 -224.2578125 192.45703125 C-224.54398437 193.23433594 -224.83015625 194.01164063 -225.125 194.8125 C-225.41632813 195.58207031 -225.70765625 196.35164062 -226.0078125 197.14453125 C-226.33523438 198.08683594 -226.66265625 199.02914062 -227 200 C-227.3544519 201.00740234 -227.3544519 201.00740234 -227.71606445 202.03515625 C-229.45927762 207.09838572 -230.85443037 212.13240784 -231.9375 217.375 C-232.1857251 218.5657312 -232.1857251 218.5657312 -232.43896484 219.78051758 C-233.90099135 227.04724403 -235.03666023 234.35670347 -236.125 241.6875 C-236.30015137 242.84604492 -236.47530273 244.00458984 -236.65576172 245.19824219 C-237.37950747 250.12083429 -238.05903356 254.9933149 -238.30859375 259.96484375 C-238.83617348 269.6029842 -238.83617348 269.6029842 -242.14453125 273.57421875 C-244.99120708 275.90775988 -247.95474819 277.93425973 -251 280 C-255.11915992 283.53704445 -259.06653826 287.25864583 -263 291 C-263.57186035 291.54317871 -264.1437207 292.08635742 -264.73291016 292.64599609 C-279.92112331 307.17836402 -291.72401181 323.69440244 -302 342 C-309.01721873 331.47417191 -307.40428327 311.49692705 -305.34765625 299.5546875 C-304.51118239 295.61384883 -303.33349026 291.79875008 -302 288 C-301.7745752 287.34435059 -301.54915039 286.68870117 -301.31689453 286.01318359 C-294.63144466 267.11873157 -283.31866438 250.1978997 -272.55273438 233.42626953 C-269.76388864 229.06847882 -267.00941311 224.68896204 -264.25 220.3125 C-263.23451547 218.70433838 -262.2189041 217.09625683 -261.203125 215.48828125 C-260.77676758 214.81321533 -260.35041016 214.13814941 -259.91113281 213.44262695 C-259.46012207 212.72852661 -259.46012207 212.72852661 -259 212 C-259.37874268 212.51296631 -259.75748535 213.02593262 -260.14770508 213.55444336 C-263.20837597 217.67223653 -266.34650396 221.66561668 -269.6875 225.5625 C-273.99145149 230.65040901 -277.96029878 235.93518103 -281.87133789 241.32861328 C-285.07025588 245.73930305 -288.3149058 250.1095158 -291.625 254.4375 C-292.05103516 254.99945068 -292.47707031 255.56140137 -292.91601562 256.14038086 C-293.91926977 257.44630538 -294.95613025 258.72630707 -296 260 C-296.33 260 -296.66 260 -297 260 C-297.33 253.4 -297.66 246.8 -298 240 C-300.19406349 249.87328569 -301.91685152 259.33692411 -302.375 269.4375 C-302.7189075 274.92191966 -303.63938441 277.58319093 -307 282 C-312.56074537 294.96838089 -313.36946431 308.81092432 -313.3125 322.75 C-313.31165405 324.70583008 -313.31165405 324.70583008 -313.31079102 326.70117188 C-313.2336864 334.8329374 -312.71587353 342.64470832 -310.97973633 350.59667969 C-309.59977767 356.93568979 -310.72156206 361.56125242 -312.875 367.5625 C-315.06929589 373.94517819 -316.59570794 380.40408276 -318 387 C-320.5265586 385.7367207 -320.68822331 384.84061426 -321.76953125 382.2734375 C-322.09848389 381.49677734 -322.42743652 380.72011719 -322.76635742 379.91992188 C-323.11158447 379.08009766 -323.45681152 378.24027344 -323.8125 377.375 C-324.16997314 376.51197266 -324.52744629 375.64894531 -324.89575195 374.75976562 C-336.61728667 346.10065297 -342.23516377 316.87702278 -342.1875 285.9375 C-342.18689575 285.21078094 -342.1862915 284.48406189 -342.18566895 283.73532104 C-342.1601324 272.39849476 -341.88789315 261.2011488 -340 250 C-339.88172852 249.29552734 -339.76345703 248.59105469 -339.64160156 247.86523438 C-334.0429467 216.32472073 -320.43121454 187.29944133 -301 162 C-300.39671875 161.19175781 -299.7934375 160.38351562 -299.171875 159.55078125 C-287.82516725 144.96534786 -274.04405395 131.72001449 -259 121 C-258.30503418 120.49839355 -257.61006836 119.99678711 -256.89404297 119.47998047 C-218.93272264 92.23481591 -175.21531176 74.97244358 -130.46875 62.28515625 C-119.2432481 59.09561275 -108.12237052 55.52969174 -97 52 C-96.35560974 51.79550232 -95.71121948 51.59100464 -95.04730225 51.38031006 C-78.34383026 46.06630489 -61.9047503 40.42675292 -46 33 C-45.26088379 32.65727051 -44.52176758 32.31454102 -43.76025391 31.96142578 C-27.93456259 24.55056069 -12.36626142 15.26379489 -1.33984375 1.43359375 C-0.67662109 0.72396484 -0.67662109 0.72396484 0 0 Z " fill="#2C512F" transform="translate(685,142)"/>
<path d="M0 0 C1.63835815 0.00241699 1.63835815 0.00241699 3.30981445 0.00488281 C15.36915132 0.18626634 27.9098303 1.4098303 36.875 10.375 C37.125 13.1875 37.125 13.1875 35.875 16.375 C30.91408272 19.86155121 25.84925423 21.56152175 19.875 22.375 C19.62105469 23.48359375 19.36710938 24.5921875 19.10546875 25.734375 C18.75831822 27.1980367 18.41063385 28.66157187 18.0625 30.125 C17.89685547 30.85460937 17.73121094 31.58421875 17.56054688 32.3359375 C16.20514439 37.96213651 16.20514439 37.96213651 14.11328125 40.578125 C13.70464844 41.17109375 13.29601562 41.7640625 12.875 42.375 C14.04889113 45.98422562 15.80449557 49.17827424 17.6953125 52.45703125 C18.23027344 53.38837891 18.76523437 54.31972656 19.31640625 55.27929688 C20.14978516 56.71885742 20.14978516 56.71885742 21 58.1875 C21.84498047 59.65606445 21.84498047 59.65606445 22.70703125 61.15429688 C24.09343539 63.56288035 25.4838286 65.96916689 26.875 68.375 C25.885 62.93 25.885 62.93 24.875 57.375 C32.15159771 58.61131515 37.43346329 59.67294663 41.984375 65.75390625 C42.875 67.375 42.875 67.375 42.875 69.375 C40.80312116 70.92968337 38.73622092 72.34908496 36.5625 73.75 C35.88952881 74.19061768 35.21655762 74.63123535 34.52319336 75.08520508 C24.1513781 81.8463462 13.65019946 88.40757688 3.13671875 94.9453125 C-15.80703568 106.73126222 -34.53727293 118.79525556 -52.8984375 131.47265625 C-55.95650566 133.57822316 -59.02268991 135.67104293 -62.1015625 137.74609375 C-62.84744629 138.24939209 -63.59333008 138.75269043 -64.36181641 139.27124023 C-66.125 140.375 -66.125 140.375 -67.125 140.375 C-67.49588801 129.69400033 -66.53557425 119.90971692 -64.4375 109.4375 C-64.30216858 108.73977478 -64.16683716 108.04204956 -64.02740479 107.32318115 C-62.04562758 97.10724689 -59.7765944 87.14146773 -56.125 77.375 C-55.77566406 76.38886719 -55.42632812 75.40273438 -55.06640625 74.38671875 C-51.22735853 64.06460991 -51.22735853 64.06460991 -46.02124023 61.22924805 C-43.49641167 60.10017761 -40.95237007 59.06565659 -38.375 58.0625 C-37.48683594 57.70349609 -36.59867187 57.34449219 -35.68359375 56.97460938 C-33.50222861 56.09502666 -31.31643928 55.22910104 -29.125 54.375 C-27.9672494 57.84825181 -28.05633348 60.73567448 -28.125 64.375 C-25.815 64.705 -23.505 65.035 -21.125 65.375 C-21.19460938 66.31859375 -21.26421875 67.2621875 -21.3359375 68.234375 C-21.74017621 77.82060734 -20.34228448 84.03666141 -15.125 92.375 C-15.269375 91.09625 -15.41375 89.8175 -15.5625 88.5 C-16.37378976 80.47982119 -16.7129316 72.42348482 -17.125 64.375 C-19.765 63.385 -22.405 62.395 -25.125 61.375 C-22.06617647 46.08088235 -22.06617647 46.08088235 -17.125 42.375 C-16.135 42.045 -15.145 41.715 -14.125 41.375 C-14.61817208 35.2925444 -16.59365005 29.35428387 -20.125 24.375 C-22.62598145 23.07584382 -24.85560839 22.52961325 -27.609375 21.96484375 C-31.74584177 20.99495791 -34.02540929 19.27244349 -37.125 16.375 C-37.875 13.3125 -37.875 13.3125 -37.125 10.375 C-28.57835528 0.68880265 -11.92307875 -0.01838137 0 0 Z " fill="#293E37" transform="translate(517.125,267.625)"/>
<path d="M0 0 C3.06110535 1.73911855 5.40078514 3.80157027 7 7 C8.4303167 16.29705852 3.09034536 24.17520691 -1.75390625 31.73828125 C-20.84829117 57.59612 -59.02163796 73.76519674 -89.55859375 78.55859375 C-94.34391949 79.13180312 -99.13370389 79.15313726 -103.94799805 79.23828125 C-142.32451904 80.01289531 -169.15382207 102.75097271 -197 127 C-197 116.1403462 -178.98806144 100.77249728 -171.375 93 C-152.54741394 74.24543963 -131.5038405 63.46062773 -106.25 56.125 C-77.68316135 47.76544668 -54.93765218 34.02986325 -32.46850586 14.7578125 C-12.02673349 -2.68514313 -12.02673349 -2.68514313 0 0 Z " fill="#FAFBFB" transform="translate(606,369)"/>
<path d="M0 0 C4.62 0 9.24 0 14 0 C18.157146 7.67473108 21.05719595 15.80563933 24 24 C24.42023438 25.16402344 24.84046875 26.32804688 25.2734375 27.52734375 C28.23335624 36.01874183 28.23335624 36.01874183 28 41 C28.66 41 29.32 41 30 41 C30.04125 39.865625 30.0825 38.73125 30.125 37.5625 C30.82153219 31.15238489 33.22877653 25.33438673 35.4375 19.32421875 C37.2369713 14.41825725 38.7522517 9.45126958 40.23828125 4.44140625 C41 2 41 2 42 0 C46.62 0 51.24 0 56 0 C53.31619233 9.66758455 49.70366416 18.95027675 46.125 28.3125 C45.50619639 29.93933371 44.88770478 31.56628614 44.26953125 33.19335938 C43.07224472 36.34276171 41.87131833 39.49073429 40.66699219 42.63745117 C39.61347616 45.39012942 38.56675434 48.14516303 37.52832031 50.90356445 C37.09358398 52.05171631 36.65884766 53.19986816 36.2109375 54.3828125 C35.8401709 55.36781738 35.4694043 56.35282227 35.08740234 57.36767578 C32.22259083 64.30265506 28.65247807 69.93401146 21.58862305 73.07080078 C16.40974352 74.4117638 11.35046902 74.39386652 6.01953125 74.4921875 C3.57037988 74.55544979 1.121243 74.61927514 -1.32788086 74.68359375 C-2.61113251 74.71437012 -3.89438416 74.74514648 -5.21652222 74.77685547 C-25.34005556 75.27421779 -45.39342245 76.04825376 -65.4375 78 C-66.31070892 78.08376892 -67.18391785 78.16753784 -68.08358765 78.25384521 C-76.46948091 79.07022323 -84.79630172 80.01236499 -93.09594727 81.48632812 C-96.35453589 82.06271068 -99.62038516 82.57213703 -102.890625 83.078125 C-133.72374421 87.94179418 -168.94737014 94.10100256 -195.89453125 110.79296875 C-196.58933594 111.19128906 -197.28414062 111.58960938 -198 112 C-198.66 111.67 -199.32 111.34 -200 111 C-148.9477338 73.35777607 -76.26616832 66.24922264 -14.53515625 64.765625 C-13.45398277 64.73833565 -13.45398277 64.73833565 -12.35096741 64.710495 C-8.83194285 64.62404828 -5.31407687 64.5546733 -1.79418945 64.5168457 C9.94636781 64.39729869 9.94636781 64.39729869 20.125 59.1875 C22.26152428 53.84618929 18.91740793 47.92198371 16.796875 42.9609375 C16.47720764 42.19882965 16.15754028 41.4367218 15.82818604 40.65151978 C14.80813375 38.2234307 13.77927864 35.79919029 12.75 33.375 C12.07362396 31.76978174 11.39783734 30.16431499 10.72265625 28.55859375 C7.08587159 19.91006077 7.08587159 19.91006077 3.40039062 11.28222656 C2.94341797 10.21198242 2.48644531 9.14173828 2.015625 8.0390625 C1.42442871 6.66935303 1.42442871 6.66935303 0.82128906 5.27197266 C0 3 0 3 0 0 Z " fill="#2B632F" transform="translate(404,679)"/>
<path d="M0 0 C4.29 0 8.58 0 13 0 C13 24.75 13 49.5 13 75 C9.37 75 5.74 75 2 75 C-0.96702378 71.92049683 -2.83907593 69.55800251 -5 66 C-5.99320772 64.57466992 -6.99302897 63.1539213 -8 61.73828125 C-9.0029802 60.26504535 -10.00288017 58.78970863 -11 57.3125 C-11.54035889 56.51739014 -12.08071777 55.72228027 -12.63745117 54.90307617 C-13.80157895 53.19005314 -14.96454831 51.4762424 -16.12646484 49.76171875 C-18.77274951 45.86091446 -21.43008754 41.96768083 -24.0871582 38.07421875 C-27.05973903 33.7172599 -30.02959602 29.35844323 -33 25 C-33.33 41.5 -33.66 58 -34 75 C-37.96 75 -41.92 75 -46 75 C-46 50.58 -46 26.16 -46 1 C-34 1 -34 1 -31.33105469 2.9140625 C-30.78352539 3.80867187 -30.23599609 4.70328125 -29.671875 5.625 C-29.02468506 6.63119385 -28.37749512 7.6373877 -27.71069336 8.67407227 C-26.74015015 10.32040649 -26.74015015 10.32040649 -25.75 12 C-24.67655016 13.69830663 -23.60305163 15.39658515 -22.526474 17.09291077 C-21.4149427 18.85704584 -20.32269316 20.63203104 -19.23291016 22.40966797 C-16.37400298 27.04509965 -13.33332601 31.55312712 -10.28979492 36.06860352 C-7.17260686 40.69860646 -4.08966488 45.35158527 -1 50 C-0.67 33.5 -0.34 17 0 0 Z " fill="#232322" transform="translate(847,659)"/>
<path d="M0 0 C4.62 0 9.24 0 14 0 C18.37355267 10.17469894 22.15706654 20.50930474 25.875 30.9375 C26.18270325 31.79773773 26.49040649 32.65797546 26.80743408 33.54428101 C30.40642217 43.60750173 33.98333358 53.67715316 37.375 63.8125 C37.65456543 64.64579834 37.93413086 65.47909668 38.22216797 66.33764648 C40 71.73870725 40 71.73870725 40 74 C35.71 74 31.42 74 27 74 C24.65711876 68.29898898 22.70221219 62.95774266 21 57 C11.43 56.67 1.86 56.34 -8 56 C-8.66 58.97 -9.32 61.94 -10 65 C-10.90943362 68.04117939 -11.95289477 71.00147138 -13 74 C-17.29 74 -21.58 74 -26 74 C-24.97361522 68.35488373 -23.39772741 63.04410624 -21.46484375 57.6484375 C-21.20600906 56.92075668 -20.94717438 56.19307587 -20.68049622 55.44334412 C-17.30474014 45.99430661 -13.82251868 36.5838251 -10.33911133 27.17407227 C-9.17021833 24.01580616 -8.00394675 20.85658008 -6.83789062 17.69726562 C-6.09390348 15.68483909 -5.34976857 13.67246717 -4.60546875 11.66015625 C-4.0836628 10.24634422 -4.0836628 10.24634422 -3.55131531 8.80397034 C-3.23040421 7.93803757 -2.9094931 7.0721048 -2.57885742 6.17993164 C-2.15632942 5.03772911 -2.15632942 5.03772911 -1.7252655 3.87245178 C-1 2 -1 2 0 0 Z " fill="#242423" transform="translate(754,660)"/>
<path d="M0 0 C4.62 0 9.24 0 14 0 C14.33 9.9 14.66 19.8 15 30 C21.31892413 23.71741764 21.31892413 23.71741764 27.375 17.1875 C27.94089844 16.55199219 28.50679687 15.91648437 29.08984375 15.26171875 C30.56974712 13.50944052 31.96263013 11.6834856 33.31640625 9.83203125 C39.61699043 1.61664608 39.61699043 1.61664608 44.06054688 0.46679688 C48.76560935 -0.02913088 53.32639046 0.36668779 58 1 C53.65009526 7.11337963 48.78784292 12.6033111 43.6953125 18.09375 C41.42181352 20.54517499 39.16272252 23.0047714 36.9375 25.5 C36.41027344 26.0878125 35.88304687 26.675625 35.33984375 27.28125 C33.92531699 29.09580328 32.95663396 30.91279864 32 33 C32.4846875 33.58265625 32.969375 34.1653125 33.46875 34.765625 C38.2944556 40.66783416 42.61875726 46.75327277 46.77539062 53.13964844 C48.22229183 55.33769213 49.69608763 57.51656132 51.171875 59.6953125 C51.72133789 60.50935547 52.27080078 61.32339844 52.83691406 62.16210938 C53.93473892 63.78789581 55.03559259 65.41164164 56.13964844 67.03320312 C56.64012695 67.77763672 57.14060547 68.52207031 57.65625 69.2890625 C58.10806641 69.95631348 58.55988281 70.62356445 59.02539062 71.31103516 C60 73 60 73 60 75 C54.9581027 75.84703875 49.95317686 76.52798543 45 75 C41.15009227 71.58501909 38.83794934 67.66860648 36.30810547 63.2265625 C34.36125778 59.91277921 32.19402362 56.75770027 30.0378418 53.57763672 C27.66112478 50.07205763 25.33115561 46.5359683 23 43 C19.19182999 43.54402429 17.33071624 44.96154033 15 48 C14.36085024 50.98687874 14.36085024 50.98687874 14.390625 54.296875 C14.35839844 55.50214844 14.32617188 56.70742188 14.29296875 57.94921875 C14.27169922 59.83060547 14.27169922 59.83060547 14.25 61.75 C14.22035156 63.01972656 14.19070313 64.28945313 14.16015625 65.59765625 C14.08946966 68.73142836 14.04246994 71.8657185 14 75 C9.38 75 4.76 75 0 75 C0 50.25 0 25.5 0 0 Z " fill="#232322" transform="translate(526,659)"/>
<path d="M0 0 C2.34389164 1.86239452 4.0603073 3.69333841 6 6 C4.87548273 8.9719385 3.77706209 11.33440687 2 14 C-0.76501836 12.9427871 -3.3711414 11.80669719 -6 10.4375 C-11.45161197 7.82526927 -17.01632423 7.39006468 -23 8 C-27.33696609 9.55072796 -27.33696609 9.55072796 -30 13 C-30.50031206 16.41571853 -30.50031206 16.41571853 -30 20 C-26.34355613 23.66334282 -22.65144736 24.98017666 -17.75 26.4375 C-8.01776536 29.48666522 -0.05126989 32.99294465 5.8125 41.6875 C8.02043267 47.84647008 7.82238166 53.65416024 5.4375 59.75 C2.46150622 65.63955412 -1.85481321 69.36763292 -7.9375 71.875 C-17.41538833 74.60151582 -30.11708135 74.44913024 -39 70 C-42.17944904 67.85494443 -45.12421316 65.53541594 -48 63 C-47.21616433 59.13857796 -45.57189568 56.98671756 -43 54 C-39.5914856 55.28873159 -36.53333885 56.81872594 -33.375 58.625 C-27.87034381 61.40197581 -23.07717043 61.8872478 -17 61 C-12.8389014 59.46696367 -11.46064429 58.69096643 -9 55 C-8.49992206 51.54213985 -8.49992206 51.54213985 -9 48 C-11.65477637 44.73911031 -14.03727063 43.34213136 -18 42.0625 C-39.12059745 34.82438361 -39.12059745 34.82438361 -43.625 27.27734375 C-45.98626162 21.64922301 -45.63452271 15.99588316 -45 10 C-43.375 6.4375 -43.375 6.4375 -41 4 C-39.7315625 2.6696875 -39.7315625 2.6696875 -38.4375 1.3125 C-28.0123153 -6.76701814 -11.12176567 -5.99703051 0 0 Z " fill="#367431" transform="translate(220,662)"/>
<path d="M0 0 C4.62 0 9.24 0 14 0 C14.33 9.24 14.66 18.48 15 28 C16.65 26.35 18.3 24.7 20 23 C25.3021619 19.31639279 32.84128196 20.47908059 39 21 C43.49026829 22.22129447 46.02359098 24.67298274 48.375 28.625 C48.91125 29.73875 49.4475 30.8525 50 32 C50.33 32.66 50.66 33.32 51 34 C51.08918777 35.38909304 51.11759541 36.78236907 51.11352539 38.17431641 C51.11344986 39.03505768 51.11337433 39.89579895 51.11329651 40.78262329 C51.10813522 41.71287323 51.10297394 42.64312317 51.09765625 43.6015625 C51.0962413 44.55316254 51.09482635 45.50476257 51.09336853 46.48519897 C51.08776012 49.53183097 51.07520619 52.57839013 51.0625 55.625 C51.05748608 57.68749894 51.05292299 59.74999903 51.04882812 61.8125 C51.03778796 66.87502817 51.02051767 71.93750173 51 77 C46.38 77 41.76 77 37 77 C36.99589111 75.8447583 36.99178223 74.6895166 36.98754883 73.49926758 C36.96573676 69.20308131 36.91142598 64.90780821 36.84741211 60.61206055 C36.82425012 58.75472787 36.8098406 56.89726418 36.80444336 55.03979492 C36.79514038 52.365545 36.75412303 49.69335032 36.70703125 47.01953125 C36.7109639 46.19226028 36.71489655 45.36498932 36.71894836 44.51264954 C36.60954759 40.16609307 36.39038922 38.48919996 33.5847168 34.97338867 C30.32477335 32.48447558 28.85328258 32.37086355 24.92578125 32.64453125 C21.01359824 33.36665834 18.78633632 34.97559746 16.39526367 38.09057617 C14.59195768 41.8508557 14.52257495 45.27562898 14.48828125 49.36328125 C14.47033005 50.15526413 14.45237885 50.94724701 14.43388367 51.76322937 C14.37993162 54.27959962 14.34593437 56.79578185 14.3125 59.3125 C14.27931349 61.02411462 14.24482259 62.73570448 14.20898438 64.44726562 C14.12421418 68.63137442 14.05733157 72.81542893 14 77 C9.38 77 4.76 77 0 77 C0 51.59 0 26.18 0 0 Z " fill="#377635" transform="translate(292,657)"/>
<path d="M0 0 C1.18698486 -0.02163208 1.18698486 -0.02163208 2.39794922 -0.04370117 C8.88458304 0.06678172 14.39324291 1.74213472 19.08984375 6.37890625 C19.63318359 7.24322266 19.63318359 7.24322266 20.1875 8.125 C20.56777344 8.70378906 20.94804687 9.28257812 21.33984375 9.87890625 C22.95667215 12.86969182 23.38524971 15.42509315 23.45532227 18.75854492 C23.4852401 20.01951241 23.4852401 20.01951241 23.51576233 21.30595398 C23.53247482 22.20916885 23.54918732 23.11238373 23.56640625 24.04296875 C23.58718735 24.97095779 23.60796844 25.89894684 23.62937927 26.85505676 C23.69477323 29.8199624 23.75371262 32.78495672 23.8125 35.75 C23.85569487 37.7597748 23.89930947 39.76954063 23.94335938 41.77929688 C24.05044427 46.70694032 24.15174045 51.63467299 24.25 56.5625 C22.45906809 56.64336147 20.66710372 56.70162702 18.875 56.75 C17.37839844 56.80220703 17.37839844 56.80220703 15.8515625 56.85546875 C14.99304688 56.75878906 14.13453125 56.66210938 13.25 56.5625 C11.25 53.5625 11.25 53.5625 11.25 50.5625 C10.21875 51.34625 9.1875 52.13 8.125 52.9375 C1.33796744 57.70056659 -5.558042 58.74928366 -13.75 57.5625 C-18.83245658 55.47453173 -21.95258571 52.86735975 -24.8125 48.1875 C-26.23408298 42.69071249 -26.81066127 38.64302788 -24.125 33.375 C-18.10490851 26.24594429 -12.99850227 23.93184346 -3.75 22.5625 C0.59862183 22.34946847 4.90124613 22.37311878 9.25 22.5625 C9.02139942 21.10065942 8.76629608 19.64294581 8.5 18.1875 C8.36078125 17.37539063 8.2215625 16.56328125 8.078125 15.7265625 C7.43469261 13.44522897 7.43469261 13.44522897 5.46484375 12.296875 C-0.44898959 10.33602726 -6.119783 10.99580031 -11.6875 13.625 C-12.39777344 14.00785156 -13.10804688 14.39070312 -13.83984375 14.78515625 C-15.75 15.5625 -15.75 15.5625 -18.75 14.5625 C-21 11.6875 -21 11.6875 -22.75 8.5625 C-21.75 5.5625 -21.75 5.5625 -19.6953125 4.17578125 C-13.00984618 1.09231825 -7.31998414 0.06496183 0 0 Z " fill="#2F6A31" transform="translate(488.75,677.4375)"/>
<path d="M0 0 C5.14901088 2.86168119 7.81753944 6.78194706 9.625 12.3125 C9.84494395 14.9762853 9.97266993 17.54614837 10.00390625 20.2109375 C10.02090073 20.96412262 10.0378952 21.71730774 10.05540466 22.49331665 C10.10829824 24.89129333 10.14868647 27.28925751 10.1875 29.6875 C10.23167962 32.0785105 10.27863553 34.46939943 10.33030701 36.86026001 C10.36181782 38.34387003 10.38883833 39.82758489 10.41053772 41.31137085 C10.49783806 45.73830304 10.91831965 49.95279844 11.625 54.3125 C9.68940687 54.44754138 7.751128 54.54451129 5.8125 54.625 C4.73355469 54.68300781 3.65460938 54.74101563 2.54296875 54.80078125 C-0.375 54.3125 -0.375 54.3125 -2.26171875 51.79296875 C-2.62910156 50.97441406 -2.99648438 50.15585937 -3.375 49.3125 C-3.91769531 49.66183594 -4.46039063 50.01117187 -5.01953125 50.37109375 C-5.73496094 50.82613281 -6.45039063 51.28117188 -7.1875 51.75 C-8.24904297 52.42869141 -8.24904297 52.42869141 -9.33203125 53.12109375 C-14.86586127 56.34827951 -21.17599377 55.94998646 -27.375 55.3125 C-31.98826335 53.70002707 -35.18402309 51.05974371 -37.875 47 C-40.21806573 41.23996341 -40.24973663 36.79370916 -37.9375 31.125 C-35.19338321 26.30860191 -31.55612376 24.07765527 -26.375 22.3125 C-19.04772424 20.82524211 -11.84562841 20.20687415 -4.375 20.3125 C-4.46173133 14.74446006 -4.46173133 14.74446006 -7.3125 10.3125 C-13.66982341 8.2366393 -19.25911307 8.53099439 -25.3125 11.375 C-26.02277344 11.75785156 -26.73304688 12.14070312 -27.46484375 12.53515625 C-29.375 13.3125 -29.375 13.3125 -32.375 12.3125 C-35.45703173 8.23981521 -35.45703173 8.23981521 -35.1953125 5.28125 C-34.11571405 2.69021371 -33.02893541 2.25977871 -30.5 1.125 C-29.45199219 0.63966797 -29.45199219 0.63966797 -28.3828125 0.14453125 C-20.40066638 -3.16324526 -8.09365775 -3.36783074 0 0 Z " fill="#2F6D2F" transform="translate(271.375,679.6875)"/>
<path d="M0 0 C4.37434188 4.08465037 6.86025946 7.39319067 7.18945312 13.53417969 C7.22448376 14.99664536 7.25477571 16.45922942 7.28125 17.921875 C7.30886414 19.08919159 7.30886414 19.08919159 7.33703613 20.28009033 C7.39573917 22.76998388 7.4485248 25.2599472 7.5 27.75 C7.5680896 31.01575543 7.6418777 34.28131594 7.71875 37.546875 C7.73232544 38.28879089 7.74590088 39.03070679 7.7598877 39.79510498 C7.86532975 44.27664647 8.28149222 48.57405028 9 53 C5.29013428 53.28783441 1.70001295 53.45251957 -2 53 C-4.6875 50.5 -4.6875 50.5 -6 48 C-6.54269531 48.34933594 -7.08539063 48.69867187 -7.64453125 49.05859375 C-8.35996094 49.51363281 -9.07539063 49.96867188 -9.8125 50.4375 C-10.87404297 51.11619141 -10.87404297 51.11619141 -11.95703125 51.80859375 C-17.2428823 54.89116463 -23.06663975 54.55337039 -29 54 C-33.92105777 52.39454853 -37.10704072 49.22817125 -40 45 C-41.97799408 41.04401183 -41.42141249 36.31184376 -41 32 C-38.52014238 26.42032035 -34.38647223 23.55351546 -29 21 C-21.61694046 18.25446919 -13.75608438 18.80140893 -6 19 C-6.8734507 13.42988307 -6.8734507 13.42988307 -10 9 C-16.31249174 6.89583609 -21.95202151 7.25890007 -28 10 C-29.0828125 10.556875 -29.0828125 10.556875 -30.1875 11.125 C-32 12 -32 12 -34 12 C-38.06554298 6.88903168 -38.06554298 6.88903168 -37.84765625 3.93359375 C-36.74776268 1.42461993 -35.71313355 0.94683782 -33.25 -0.1875 C-32.57453125 -0.51105469 -31.8990625 -0.83460938 -31.203125 -1.16796875 C-22.14789586 -4.58776273 -8.45325369 -4.85279378 0 0 Z " fill="#316F31" transform="translate(392,681)"/>
<path d="M0 0 C1.35808946 0.96611118 2.70001106 1.95702036 4 3 C3.46292236 6.86695903 2.41445371 8.97060499 0 12 C-0.67546875 11.79503906 -1.3509375 11.59007812 -2.046875 11.37890625 C-2.93890625 11.10949219 -3.8309375 10.84007812 -4.75 10.5625 C-5.63171875 10.29566406 -6.5134375 10.02882813 -7.421875 9.75390625 C-13.70427655 7.91677974 -19.82790289 6.54612216 -26 9.375 C-28.60683088 11.49305009 -28.93044478 12.47833589 -29.375 15.8125 C-28.86072228 20.18386062 -27.36520428 21.2036238 -24 24 C-21.14354188 25.39176213 -18.19061666 26.40870588 -15.1875 27.4375 C-6.90961129 30.47896561 1.23153582 33.57761485 5.375 41.95703125 C7.46359991 48.78414222 6.54318487 55.71118348 3.31640625 61.99609375 C-0.45947356 67.7439464 -5.37220671 70.83692052 -11.9921875 72.52734375 C-21.68570746 74.05061117 -31.45313953 74.37127537 -40 69 C-40.61746094 68.6184375 -41.23492188 68.236875 -41.87109375 67.84375 C-43.274405 66.936297 -44.64248249 65.97462795 -46 65 C-45.35455571 61.51460083 -43.89865603 58.97180943 -42 56 C-38.89563419 56.67486213 -36.2055409 57.762728 -33.3125 59.0625 C-26.75244573 61.70193446 -21.29227118 61.9447542 -14.5625 59.75 C-11.08963284 58.32105617 -11.08963284 58.32105617 -9.4375 56.25 C-8.78944345 52.91713774 -9.2229152 50.28766646 -10 47 C-12.15770937 44.28447847 -14.44985147 43.20739734 -17.640625 41.94921875 C-18.99994141 41.39524414 -18.99994141 41.39524414 -20.38671875 40.83007812 C-22.27806618 40.07534535 -24.17127238 39.32525212 -26.06640625 38.58007812 C-33.04821043 35.72119225 -38.47832871 32.49780211 -42.9375 26.3125 C-44.82017855 20.44297274 -44.81224216 14.63978702 -43 8.75 C-32.52424318 -5.65416562 -15.69325314 -8.07621805 0 0 Z " fill="#222222" transform="translate(720,662)"/>
<path d="M0 0 C1.80078125 1.63671875 1.80078125 1.63671875 3 3 C1.88243734 6.86848614 0.97126708 9.28922757 -2 12 C-2.78503906 11.71125 -3.57007813 11.4225 -4.37890625 11.125 C-14.48953366 7.53539731 -14.48953366 7.53539731 -24.8125 9.3125 C-28.19765696 10.78101531 -28.19765696 10.78101531 -30 14 C-30.15483439 17.50260082 -30.15483439 17.50260082 -29 21 C-24.6840908 24.43042631 -20.26236579 26.14329684 -15.125 27.875 C-7.24331147 30.70079918 0.44413286 33.97233893 4.375 41.88671875 C6.15820655 47.91618589 5.99447917 54.60796041 3.4375 60.375 C-0.17743536 66.45466401 -5.41472524 70.59380442 -12.2265625 72.5234375 C-23.20375705 74.40965966 -33.2231136 73.7558784 -43 68 C-44.83203125 66.484375 -44.83203125 66.484375 -46 65 C-45.80250247 61.14879822 -44.46742938 58.89654753 -42 56 C-36.41110614 57.81639051 -36.41110614 57.81639051 -34.20703125 58.80078125 C-28.54645234 61.26342486 -23.1292027 61.8689266 -17 61 C-13.85091899 59.68993309 -11.5635679 58.1271358 -10 55 C-9.47534381 50.21469276 -9.47534381 50.21469276 -11.4375 46.01953125 C-15.06639691 43.15956219 -19.02711806 41.72082788 -23.3125 40.0625 C-39.53140171 33.77405248 -39.53140171 33.77405248 -43.33984375 26.2890625 C-45.19582285 19.85353734 -45.13234689 12.64214273 -42.5 6.5 C-30.80315413 -5.19684587 -15.02054821 -7.94892728 0 0 Z " fill="#222222" transform="translate(663,662)"/>
<path d="M0 0 C4.29 0 8.58 0 13 0 C13 24.09 13 48.18 13 73 C8.71 73 4.42 73 0 73 C0 48.91 0 24.82 0 0 Z " fill="#1E1E1D" transform="translate(593,660)"/>
<path d="M0 0 C1.32 0 2.64 0 4 0 C5.32 0 6.64 0 8 0 C8.08736736 3.72901814 8.14051482 7.45777165 8.1875 11.1875 C8.21263672 12.24259766 8.23777344 13.29769531 8.26367188 14.38476562 C8.27333984 15.40634766 8.28300781 16.42792969 8.29296875 17.48046875 C8.3086792 18.41785889 8.32438965 19.35524902 8.34057617 20.32104492 C7.93229508 23.53256353 6.88830698 25.39378631 5 28 C2.2889923 29.35550385 0.08660831 29.16917207 -2.9375 29.1875 C-4.52884766 29.20876953 -4.52884766 29.20876953 -6.15234375 29.23046875 C-9 29 -9 29 -12 27 C-12 26.34 -12 25.68 -12 25 C-11.319375 25.165 -10.63875 25.33 -9.9375 25.5 C-6.48403242 26.08782427 -3.4971817 26.31792561 0 26 C2.52311011 24.39450853 2.52311011 24.39450853 4 22 C4 20.68 4 19.36 4 18 C3.484375 18.495 2.96875 18.99 2.4375 19.5 C-0.97904264 21.60248778 -3.04648052 21.54531303 -7 21 C-9.97046873 19.20976215 -12.42502414 17.14995172 -14 14 C-14.5811138 6.91041162 -14.5811138 6.91041162 -12.125 3.0625 C-8.33647928 -0.61459364 -5.01010586 -0.08507727 0 0 Z " fill="#1A1A19" transform="translate(542,791)"/>
<path d="M0 0 C0.99 0 1.98 0 3 0 C3.33 0.66 3.66 1.32 4 2 C4.99 1.34 5.98 0.68 7 0 C15.71698113 -0.55345912 15.71698113 -0.55345912 19 2 C21.85012381 5.46086463 22.5335801 8.51719663 22.35546875 13.00390625 C21.62794283 17.08924409 19.41524843 19.96215115 16.125 22.375 C13.25162821 23.22010935 10.98119318 23.31054096 8 23 C6.68 22.01 5.36 21.02 4 20 C3.67 23.3 3.34 26.6 3 30 C2.01 30 1.02 30 0 30 C0 20.1 0 10.2 0 0 Z " fill="#2F2F2F" transform="translate(358,791)"/>
<path d="M0 0 C0.99 0.66 1.98 1.32 3 2 C1.24973868 6.18812529 -1.64306184 9.40780309 -4.5 12.875 C-7.75039327 16.84983408 -10.9348133 20.82578302 -13.83984375 25.0625 C-14.27941406 25.7033252 -14.71898437 26.34415039 -15.171875 27.00439453 C-15.99840906 28.22601953 -16.81284474 29.45594263 -17.61328125 30.69482422 C-19.48905914 33.46402218 -20.54118276 34.85456845 -23.78515625 35.8828125 C-24.51605469 35.92148437 -25.24695313 35.96015625 -26 36 C-27.23176393 32.30470821 -26.61516057 31.25641487 -25.26953125 27.66796875 C-24.87830078 26.62189453 -24.48707031 25.57582031 -24.08398438 24.49804688 C-23.66439453 23.40556641 -23.24480469 22.31308594 -22.8125 21.1875 C-22.41224609 20.10662109 -22.01199219 19.02574219 -21.59960938 17.91210938 C-17.52808827 7.16250179 -13.28064519 -3.53155733 0 0 Z " fill="#1F2522" transform="translate(669,367)"/>
<path d="M0 0 C4.06219391 0.04520725 6.5258907 0.61209239 9.75 3.25 C12.44000043 7.28500065 12.428474 10.50875907 11.75 15.25 C8.82317073 20.71341463 8.82317073 20.71341463 5.75 22.25 C0.54328939 22.89507919 -3.06709835 23.1673523 -7.3125 19.875 C-10.24974946 15.89550073 -10.63678294 13.37656839 -10.61328125 8.51171875 C-10.0418883 4.95433683 -7.9987971 3.39540262 -5.25 1.25 C-3.68966377 -0.31033623 -2.16052864 0.04292441 0 0 Z " fill="#F6F6F6" transform="translate(395.25,790.75)"/>
<path d="M0 0 C2.45034599 2.97389439 3.79381164 5.71530238 5.04296875 9.3515625 C5.39423828 10.36734375 5.74550781 11.383125 6.10742188 12.4296875 C6.64206055 14.01136719 6.64206055 14.01136719 7.1875 15.625 C7.55552734 16.6871875 7.92355469 17.749375 8.30273438 18.84375 C11 26.71035772 11 26.71035772 11 29 C4.4 29 -2.2 29 -9 29 C-6.75 18.875 -6.75 18.875 -5.2734375 14.74609375 C-4.809375 13.43608398 -4.809375 13.43608398 -4.3359375 12.09960938 C-4.01882813 11.22111328 -3.70171875 10.34261719 -3.375 9.4375 C-3.05015625 8.52419922 -2.7253125 7.61089844 -2.390625 6.66992188 C-1.59846371 4.44488059 -0.8015341 2.22167825 0 0 Z " fill="#EFEFEF" transform="translate(760,676)"/>
<path d="M0 0 C0.99 0 1.98 0 3 0 C3.33 0.66 3.66 1.32 4 2 C4.66 1.34 5.32 0.68 6 0 C14.20588235 -0.52941176 14.20588235 -0.52941176 18 2 C18.66 1.34 19.32 0.68 20 0 C22.0234375 -0.37109375 22.0234375 -0.37109375 24.375 -0.4375 C25.53128906 -0.49744141 25.53128906 -0.49744141 26.7109375 -0.55859375 C29 0 29 0 31.2734375 1.9765625 C33.60191574 6.05403345 33.45049633 9.2126515 33.25 13.8125 C33.23195313 14.60076172 33.21390625 15.38902344 33.1953125 16.20117188 C33.14844048 18.13464261 33.0767041 20.06748285 33 22 C31.68 22 30.36 22 29 22 C28.93941406 20.78441406 28.87882812 19.56882812 28.81640625 18.31640625 C28.73201668 16.73175772 28.6473679 15.14712298 28.5625 13.5625 C28.52318359 12.76005859 28.48386719 11.95761719 28.44335938 11.13085938 C28.5945704 7.24760439 28.5945704 7.24760439 27 4 C24.04182893 3.74994614 24.04182893 3.74994614 21 4 C18.06552643 6.93447357 18.53841577 10.18259456 18.375 14.125 C18.33632813 14.87910156 18.29765625 15.63320313 18.2578125 16.41015625 C18.16348969 18.27303184 18.08065338 20.13648255 18 22 C16.68 22 15.36 22 14 22 C13.93941406 20.78441406 13.87882812 19.56882812 13.81640625 18.31640625 C13.73201668 16.73175772 13.6473679 15.14712298 13.5625 13.5625 C13.52318359 12.76005859 13.48386719 11.95761719 13.44335938 11.13085938 C13.5945704 7.24760439 13.5945704 7.24760439 12 4 C9.04195427 3.66659529 9.04195427 3.66659529 6 4 C3.59880941 7.60178588 3.56228678 10.50866369 3.375 14.6875 C3.33632813 15.38939453 3.29765625 16.09128906 3.2578125 16.81445312 C3.1637666 18.54254655 3.0808032 20.27123675 3 22 C2.01 22 1.02 22 0 22 C0 14.74 0 7.48 0 0 Z " fill="#292929" transform="translate(318,791)"/>
<path d="M0 0 C2.475 0.495 2.475 0.495 5 1 C5.66 0.67 6.32 0.34 7 0 C15.39097744 -0.40601504 15.39097744 -0.40601504 19 2 C19.66 1.34 20.32 0.68 21 0 C23.05859375 -0.30078125 23.05859375 -0.30078125 25.4375 -0.3125 C26.61119141 -0.33763672 26.61119141 -0.33763672 27.80859375 -0.36328125 C30.56299324 0.09333043 31.28895226 0.8256569 33 3 C33.34057617 5.0847168 33.34057617 5.0847168 33.29296875 7.44921875 C33.2784668 8.72055664 33.2784668 8.72055664 33.26367188 10.01757812 C33.23853516 10.89865234 33.21339844 11.77972656 33.1875 12.6875 C33.16719727 14.02651367 33.16719727 14.02651367 33.14648438 15.39257812 C33.11114079 17.59566166 33.06180493 19.79752582 33 22 C32.01 22 31.02 22 30 22 C29.93941406 20.78441406 29.87882813 19.56882812 29.81640625 18.31640625 C29.73201668 16.73175772 29.6473679 15.14712298 29.5625 13.5625 C29.52318359 12.76005859 29.48386719 11.95761719 29.44335938 11.13085938 C29.5945704 7.24760439 29.5945704 7.24760439 28 4 C25.0842309 3.58297878 25.0842309 3.58297878 22 4 C18.51599623 7.30280263 18.52695897 10.61768635 18.3125 15.25 C18.24675781 16.51328125 18.18101562 17.7765625 18.11328125 19.078125 C18.07589844 20.04234375 18.03851562 21.0065625 18 22 C17.01 22 16.02 22 15 22 C14.93941406 20.78441406 14.87882813 19.56882812 14.81640625 18.31640625 C14.73201668 16.73175772 14.6473679 15.14712298 14.5625 13.5625 C14.52318359 12.76005859 14.48386719 11.95761719 14.44335938 11.13085938 C14.5945704 7.24760439 14.5945704 7.24760439 13 4 C10.04182893 3.74994614 10.04182893 3.74994614 7 4 C4.06552643 6.93447357 4.53841577 10.18259456 4.375 14.125 C4.33632813 14.87910156 4.29765625 15.63320313 4.2578125 16.41015625 C4.16348969 18.27303184 4.08065338 20.13648255 4 22 C2.68 22 1.36 22 0 22 C0 14.74 0 7.48 0 0 Z " fill="#383738" transform="translate(639,791)"/>
<path d="M0 0 C1.26328125 0.01804687 2.5265625 0.03609375 3.828125 0.0546875 C4.79234375 0.07789063 5.7565625 0.10109375 6.75 0.125 C7.23730964 7.31281726 7.23730964 7.31281726 5.0625 10.9375 C1.4634791 14.34197923 -1.24276049 16.28013687 -6.25 16.5625 C-9.29590856 16.42981838 -10.45000416 16.01666441 -13.25 14.5 C-15.25 12.125 -15.25 12.125 -15.8125 9.125 C-15.12793353 5.4739788 -14.15183701 4.38198434 -11.25 2.125 C-7.57028692 -0.27703493 -4.31776148 -0.07995855 0 0 Z " fill="#F2F6F3" transform="translate(261.25,708.875)"/>
<path d="M0 0 C1.76923828 0.01353516 1.76923828 0.01353516 3.57421875 0.02734375 C4.47785156 0.03894531 5.38148438 0.05054688 6.3125 0.0625 C6.98214286 7.83035714 6.98214286 7.83035714 4.125 11.4375 C0.29766836 15.0096762 -2.04574103 15.85728013 -7.1875 16.5 C-10.6875 16.0625 -10.6875 16.0625 -13.6875 13.9375 C-15.6875 11.0625 -15.6875 11.0625 -15.8125 8 C-14.43179787 4.39483333 -12.90571316 3.13135132 -9.6875 1.0625 C-6.26517028 -0.07827657 -3.60076783 -0.03565117 0 0 Z " fill="#F4F7F4" transform="translate(379.6875,708.9375)"/>
<path d="M0 0 C0.86367188 -0.03738281 1.72734375 -0.07476563 2.6171875 -0.11328125 C5.125 0.3125 5.125 0.3125 7.4296875 1.75390625 C9.97422703 5.59416752 9.55760776 9.0675397 9.375 13.5625 C9.35695313 14.40296875 9.33890625 15.2434375 9.3203125 16.109375 C9.27330798 18.17757395 9.20156724 20.24518441 9.125 22.3125 C8.135 22.3125 7.145 22.3125 6.125 22.3125 C6.125 21.6525 6.125 20.9925 6.125 20.3125 C5.135 20.9725 4.145 21.6325 3.125 22.3125 C0.96875 22.61328125 0.96875 22.61328125 -1.375 22.625 C-2.53515625 22.65013672 -2.53515625 22.65013672 -3.71875 22.67578125 C-6.4114981 22.22211173 -7.27576454 21.50013342 -8.875 19.3125 C-9.52105138 13.28268712 -9.52105138 13.28268712 -7.73828125 10.60546875 C-5.03662878 8.73073716 -2.93369918 9.0202839 0.3125 9.125 C1.39917969 9.15207031 2.48585938 9.17914062 3.60546875 9.20703125 C4.85263672 9.25923828 4.85263672 9.25923828 6.125 9.3125 C5.465 7.6625 4.805 6.0125 4.125 4.3125 C0.495 4.3125 -3.135 4.3125 -6.875 4.3125 C-6.875 3.3225 -6.875 2.3325 -6.875 1.3125 C-4.44538821 0.0976941 -2.71115884 0.07642733 0 0 Z " fill="#2A2A2A" transform="translate(603.875,790.6875)"/>
<path d="M0 0 C2.8100346 1.79363911 4.50940468 3.01880935 6 6 C6 7.98 6 9.96 6 12 C0.39 12 -5.22 12 -11 12 C-10.01 13.98 -9.02 15.96 -8 18 C-3.34993885 19.3777959 -0.30343856 19.2169229 4 17 C4.33 17.99 4.66 18.98 5 20 C0.43966374 22.59539875 -3.86522236 23.04148792 -9 22 C-12.48317296 19.74416554 -14.47958138 16.97911023 -15.53515625 12.96484375 C-15.82759321 9.07318266 -14.9956362 6.52048786 -12.625 3.5625 C-8.70116912 -0.26790633 -5.37899258 -0.77284376 0 0 Z " fill="#424343" transform="translate(460,791)"/>
<path d="M0 0 C1.76923828 0.01353516 1.76923828 0.01353516 3.57421875 0.02734375 C4.47785156 0.03894531 5.38148438 0.05054688 6.3125 0.0625 C7.09220297 8.0154703 7.09220297 8.0154703 4.125 12 C-0.78220683 15.59861834 -4.54630387 16.73244867 -10.6875 16.0625 C-13.125 14.4375 -13.125 14.4375 -14.6875 12.0625 C-15.25 9.125 -15.25 9.125 -14.6875 6.0625 C-10.1603206 0.55647101 -6.90179962 -0.06833465 0 0 Z " fill="#F6F8F6" transform="translate(491.6875,708.9375)"/>
<path d="M0 0 C3 2.0625 3 2.0625 5 5 C5.33 7.31 5.66 9.62 6 12 C0.39 12 -5.22 12 -11 12 C-10.01 13.98 -9.02 15.96 -8 18 C-3.34993885 19.3777959 -0.30343856 19.2169229 4 17 C4.33 17.99 4.66 18.98 5 20 C0.44256222 22.6102646 -3.86141231 22.90485631 -9 22 C-12.71739281 19.24912932 -13.68106259 17.81794323 -14.46875 13.328125 C-14.71986943 8.6824155 -14.50611757 5.83264503 -12.0625 1.8125 C-7.935385 -0.63007827 -4.6811443 -1.04308107 0 0 Z " fill="#2A2A29" transform="translate(693,791)"/>
<path d="M0 0 C6.93 0 13.86 0 21 0 C21 0.99 21 1.98 21 3 C15.39 3 9.78 3 4 3 C4 6.3 4 9.6 4 13 C8.62 13 13.24 13 18 13 C18 13.99 18 14.98 18 16 C13.38 16 8.76 16 4 16 C4 19.63 4 23.26 4 27 C9.61 27 15.22 27 21 27 C21 27.99 21 28.98 21 30 C14.07 30 7.14 30 0 30 C0 20.1 0 10.2 0 0 Z " fill="#4F504F" transform="translate(290,783)"/>
<path d="M0 0 C0.99 0 1.98 0 3 0 C4.65 4.62 6.3 9.24 8 14 C8.639375 12.246875 9.27875 10.49375 9.9375 8.6875 C10.29714844 7.70136719 10.65679687 6.71523438 11.02734375 5.69921875 C11.70885965 3.8079437 12.3642811 1.90715671 13 0 C14.32 0 15.64 0 17 0 C17.67413211 1.91405367 18.3390332 3.83136026 19 5.75 C19.37125 6.81734375 19.7425 7.8846875 20.125 8.984375 C21 12 21 12 21 16 C21.66 16 22.32 16 23 16 C23.12117188 15.34773437 23.24234375 14.69546875 23.3671875 14.0234375 C24.28943989 9.21353658 25.30167277 4.60974535 27 0 C28.32 0.33 29.64 0.66 31 1 C30.21302169 3.75142034 29.42062261 6.5010792 28.625 9.25 C28.40328125 10.02730469 28.1815625 10.80460938 27.953125 11.60546875 C27.73398437 12.35957031 27.51484375 13.11367188 27.2890625 13.890625 C27.09006348 14.58188477 26.89106445 15.27314453 26.68603516 15.98535156 C25.96429564 18.10485138 25.04352538 20.02156897 24 22 C22.68 22 21.36 22 20 22 C18.35 17.05 16.7 12.1 15 7 C13.35 11.95 11.7 16.9 10 22 C8.68 21.67 7.36 21.34 6 21 C4.99511719 19.28173828 4.99511719 19.28173828 4.296875 17.0703125 C4.0390625 16.27496094 3.78125 15.47960937 3.515625 14.66015625 C3.26296875 13.82355469 3.0103125 12.98695313 2.75 12.125 C2.481875 11.29613281 2.21375 10.46726562 1.9375 9.61328125 C0 3.49433992 0 3.49433992 0 0 Z " fill="#3E3E3E" transform="translate(411,791)"/>
<path d="M0 0 C6.93 0 13.86 0 21 0 C21 0.99 21 1.98 21 3 C15.39 3 9.78 3 4 3 C4 6.63 4 10.26 4 14 C8.62 14 13.24 14 18 14 C18 14.99 18 15.98 18 17 C13.38 17 8.76 17 4 17 C4 21.29 4 25.58 4 30 C2.68 30 1.36 30 0 30 C0 20.1 0 10.2 0 0 Z " fill="#3C3C3B" transform="translate(570,783)"/>
<path d="M0 0 C4.47395674 0.78490469 5.93038535 1.95599171 8.5625 5.625 C9.27210213 9.40954468 8.84051176 11.09214413 7.0625 14.5 C4.03334317 17.07478331 2.35599229 17.37045844 -1.53125 17.109375 C-3.4375 16.625 -3.4375 16.625 -5.9375 14.5 C-7.70489304 11.11249667 -8.0652457 9.3914742 -7.4375 5.625 C-5.35210259 1.78786876 -4.33645599 0.78844654 0 0 Z " fill="#F4F4F5" transform="translate(368.4375,793.375)"/>
<path d="M0 0 C2.5625 2.0625 2.5625 2.0625 4 5 C4 8.77910616 3.83289714 11.00693033 1.375 13.9375 C-1.93237046 15.4171131 -4.42006868 15.39053796 -8 15 C-9.875 14 -9.875 14 -11 12 C-11.78817606 9.29028522 -12.17039936 6.82294946 -12 4 C-9.29617343 -0.70230709 -4.98216238 -1.16148571 0 0 Z " fill="#F4F4F4" transform="translate(543,794)"/>
<path d="M0 0 C4.06219391 0.04520725 6.5258907 0.61209239 9.75 3.25 C12.44000043 7.28500065 12.428474 10.50875907 11.75 15.25 C8.82317073 20.71341463 8.82317073 20.71341463 5.75 22.25 C0.54328939 22.89507919 -3.06709835 23.1673523 -7.3125 19.875 C-10.24974946 15.89550073 -10.63678294 13.37656839 -10.61328125 8.51171875 C-10.0418883 4.95433683 -7.9987971 3.39540262 -5.25 1.25 C-3.68966377 -0.31033623 -2.16052864 0.04292441 0 0 Z M-5.75 5.375 C-7.51739304 8.76250333 -7.8777457 10.4835258 -7.25 14.25 C-5.2788205 17.66165683 -4.03105976 18.96748902 -0.3125 20.3125 C3.64500721 20.23173455 4.9959462 19.0040538 7.75 16.25 C9.17662219 13.39675563 9.06033868 11.41545451 8.75 8.25 C7.40884601 5.24020117 7.40884601 5.24020117 4.75 3.25 C0.42775847 2.15172551 -2.33618622 2.47325829 -5.75 5.375 Z " fill="#2A292A" transform="translate(395.25,790.75)"/>
<path d="M0 0 C0.99 0 1.98 0 3 0 C3.33 0.66 3.66 1.32 4 2 C4.99 1.34 5.98 0.68 7 0 C12.69469027 -0.63274336 12.69469027 -0.63274336 15 0 C17.39692402 2.11665542 18.80947 3.78442751 19.31420898 7.00463867 C19.39340723 9.2872182 19.34945088 11.53086735 19.25 13.8125 C19.23195313 14.60076172 19.21390625 15.38902344 19.1953125 16.20117188 C19.14844048 18.13464261 19.0767041 20.06748285 19 22 C18.01 22 17.02 22 16 22 C15.92652344 20.30230469 15.92652344 20.30230469 15.8515625 18.5703125 C15.77653486 17.08851661 15.70098703 15.606747 15.625 14.125 C15.5940625 13.37863281 15.563125 12.63226562 15.53125 11.86328125 C15.44356169 7.46526812 15.44356169 7.46526812 13 4 C9.5 3.66666667 9.5 3.66666667 6 4 C3.06552643 6.93447357 3.53841577 10.18259456 3.375 14.125 C3.33632813 14.87910156 3.29765625 15.63320313 3.2578125 16.41015625 C3.16348969 18.27303184 3.08065338 20.13648255 3 22 C2.01 22 1.02 22 0 22 C0 14.74 0 7.48 0 0 Z " fill="#353535" transform="translate(503,791)"/>
<path d="M0 0 C2.5 1.5 2.5 1.5 4 3 C0.90521121 4.03159626 -0.52631393 3.97482862 -3.6875 3.5625 C-4.49574219 3.46066406 -5.30398438 3.35882812 -6.13671875 3.25390625 C-6.75160156 3.17011719 -7.36648438 3.08632813 -8 3 C-7.67 4.65 -7.34 6.3 -7 8 C-6.37351562 8.19335938 -5.74703125 8.38671875 -5.1015625 8.5859375 C-4.28429687 8.84632813 -3.46703125 9.10671875 -2.625 9.375 C-1.81289063 9.63023437 -1.00078125 9.88546875 -0.1640625 10.1484375 C2 11 2 11 4 13 C4.3125 16.5 4.3125 16.5 4 20 C0.76085771 22.15942819 -0.24859733 22.27232978 -4 22.25 C-4.86625 22.25515625 -5.7325 22.2603125 -6.625 22.265625 C-9 22 -9 22 -12 20 C-12 19.34 -12 18.68 -12 18 C-8.04 18 -4.08 18 0 18 C-0.33 16.68 -0.66 15.36 -1 14 C-2.75102797 12.97486561 -2.75102797 12.97486561 -4.875 12.4375 C-8.0344551 11.49899027 -9.8992299 10.59202711 -12 8 C-12.4375 5.5 -12.4375 5.5 -12 3 C-8.86194892 -0.79181172 -4.56893374 -0.73028039 0 0 Z " fill="#2E2E2E" transform="translate(735,791)"/>
<path d="M0 0 C0.33 0 0.66 0 1 0 C1 1.65 1 3.3 1 5 C5.95 5 10.9 5 16 5 C15.67 3.35 15.34 1.7 15 0 C16.32 0.33 17.64 0.66 19 1 C19 2.98 19 4.96 19 7 C13.39 7 7.78 7 2 7 C2.99 8.98 3.98 10.96 5 13 C9.65006115 14.3777959 12.69656144 14.2169229 17 12 C17.33 12.99 17.66 13.98 18 15 C13.43966374 17.59539875 9.13477764 18.04148792 4 17 C1.12459559 15.13777943 -0.5303809 13.08388576 -2 10 C-2.58877445 7.01866026 -2.41865675 5.08759352 -2 2 C-1.34 1.34 -0.68 0.68 0 0 Z " fill="#3D3D3D" transform="translate(447,796)"/>
<path d="M0 0 C5.61 0.33 11.22 0.66 17 1 C17 1.66 17 2.32 17 3 C12.38 3 7.76 3 3 3 C3 6.63 3 10.26 3 14 C8.61 14 14.22 14 20 14 C20 14.99 20 15.98 20 17 C13.4 17 6.8 17 0 17 C0 11.39 0 5.78 0 0 Z " fill="#232323" transform="translate(291,796)"/>
<path d="M0 0 C1.32 0 2.64 0 4 0 C4.33 0.66 4.66 1.32 5 2 C5.99 1.34 6.98 0.68 8 0 C11.1875 -0.125 11.1875 -0.125 14 0 C14 0.99 14 1.98 14 3 C12.329375 3.433125 12.329375 3.433125 10.625 3.875 C6.99708908 4.69241329 6.99708908 4.69241329 5 7 C4.69400937 9.56916657 4.48912913 12.04758384 4.375 14.625 C4.33632813 15.33140625 4.29765625 16.0378125 4.2578125 16.765625 C4.16352276 18.50998524 4.08067109 20.25495691 4 22 C2.68 22 1.36 22 0 22 C0 14.74 0 7.48 0 0 Z " fill="#515150" transform="translate(472,791)"/>
<path d="M0 0 C1.32 0 2.64 0 4 0 C4.33 0.66 4.66 1.32 5 2 C5.99 1.34 6.98 0.68 8 0 C11.1875 -0.125 11.1875 -0.125 14 0 C14 0.99 14 1.98 14 3 C12.329375 3.433125 12.329375 3.433125 10.625 3.875 C6.99708908 4.69241329 6.99708908 4.69241329 5 7 C4.69400937 9.56916657 4.48912913 12.04758384 4.375 14.625 C4.33632813 15.33140625 4.29765625 16.0378125 4.2578125 16.765625 C4.16352276 18.50998524 4.08067109 20.25495691 4 22 C2.68 22 1.36 22 0 22 C0 14.74 0 7.48 0 0 Z " fill="#454645" transform="translate(705,791)"/>
<path d="M0 0 C2.21875 0.59375 2.21875 0.59375 4.484375 2.57421875 C6.82488331 6.64902262 6.66936539 9.80366995 6.46875 14.40625 C6.45070313 15.19451172 6.43265625 15.98277344 6.4140625 16.79492188 C6.36719048 18.72839261 6.2954541 20.66123285 6.21875 22.59375 C4.89875 22.59375 3.57875 22.59375 2.21875 22.59375 C2.15816406 21.37816406 2.09757812 20.16257812 2.03515625 18.91015625 C1.95076668 17.32550772 1.8661179 15.74087298 1.78125 14.15625 C1.74193359 13.35380859 1.70261719 12.55136719 1.66210938 11.72460938 C1.8133204 7.84135439 1.8133204 7.84135439 0.21875 4.59375 C-3.81285191 4.33081944 -5.34017734 4.29970156 -8.78125 6.59375 C-8.78125 5.93375 -8.78125 5.27375 -8.78125 4.59375 C-9.44125 4.26375 -10.10125 3.93375 -10.78125 3.59375 C-7.53069267 0.20186409 -4.43283887 0.18217146 0 0 Z " fill="#454444" transform="translate(344.78125,790.40625)"/>
<path d="M0 0 C0.99 0 1.98 0 3 0 C3.33 1.32 3.66 2.64 4 4 C3.34 4 2.68 4 2 4 C2 5.65 2 7.3 2 9 C2.33 9 2.66 9 3 9 C3.28875 10.11375 3.5775 11.2275 3.875 12.375 C4.69241329 16.00291092 4.69241329 16.00291092 7 18 C8.98821313 18.39764263 10.98944339 18.73775349 13 19 C11.02 19.99 11.02 19.99 9 21 C10.65 21.33 12.3 21.66 14 22 C14 22.33 14 22.66 14 23 C9.06071112 23.3367697 8.21507278 23.16130459 4 20 C3.67 23.3 3.34 26.6 3 30 C2.01 30 1.02 30 0 30 C0 20.1 0 10.2 0 0 Z " fill="#313131" transform="translate(358,791)"/>
<path d="M0 0 C0.99 0 1.98 0 3 0 C3.33 0.99 3.66 1.98 4 3 C4.37125 2.505 4.7425 2.01 5.125 1.5 C7.74694393 -0.59755514 9.73842472 -0.21743835 13 0 C13 0.99 13 1.98 13 3 C11.329375 3.4021875 11.329375 3.4021875 9.625 3.8125 C5.78159049 4.65809019 5.78159049 4.65809019 4 8 C3.70547416 10.38677076 3.5071783 12.78626094 3.375 15.1875 C3.30023437 16.45980469 3.22546875 17.73210938 3.1484375 19.04296875 C3.09945312 20.01878906 3.05046875 20.99460937 3 22 C2.01 22 1.02 22 0 22 C0 14.74 0 7.48 0 0 Z " fill="#2C2C2C" transform="translate(621,791)"/>
<path d="M0 0 C0.80824219 0.11085938 1.61648438 0.22171875 2.44921875 0.3359375 C3.37154297 0.47902344 3.37154297 0.47902344 4.3125 0.625 C4.5625 2.9375 4.5625 2.9375 4.3125 5.625 C2.00469344 8.19909193 0.63852209 8.59239779 -2.8125 8.9375 C-5.6875 8.625 -5.6875 8.625 -7.6875 6.625 C-8 4.125 -8 4.125 -7.6875 1.625 C-4.33422361 -0.61051759 -3.78006343 -0.54783528 0 0 Z " fill="#ECECEC" transform="translate(605.6875,802.375)"/>
<path d="M0 0 C1.32 0 2.64 0 4 0 C4 7.26 4 14.52 4 22 C2.68 22 1.36 22 0 22 C0 14.74 0 7.48 0 0 Z " fill="#494949" transform="translate(491,791)"/>
<path d="M0 0 C1.42131189 0.24529092 2.84013562 0.5082344 4.25 0.8125 C4.25 1.1425 4.25 1.4725 4.25 1.8125 C2.579375 2.245625 2.579375 2.245625 0.875 2.6875 C-2.75291092 3.50491329 -2.75291092 3.50491329 -4.75 5.8125 C-4.84906404 7.73540355 -4.84906404 7.73540355 -4.5 9.8125 C-4.41234375 10.51375 -4.3246875 11.215 -4.234375 11.9375 C-3.8603165 14.04069545 -3.8603165 14.04069545 -1.75 15.8125 C0.23821313 16.21014263 2.23944339 16.55025349 4.25 16.8125 C4.58 17.8025 4.91 18.7925 5.25 19.8125 C-0.73654709 20.41115471 -0.73654709 20.41115471 -3.515625 18.76953125 C-5.68510476 16.97391815 -7.48071964 15.35106072 -8.75 12.8125 C-9.11635598 8.34295709 -9.22183736 5.81771872 -7.3125 1.75 C-4.31912039 -0.51328702 -3.59643372 -0.38512991 0 0 Z " fill="#323232" transform="translate(536.75,792.1875)"/>
<path d="M0 0 C0.66 0.33 1.32 0.66 2 1 C1.06646686 5.64570021 0.00882851 10.14979477 -1.5625 14.625 C-2.87920146 18.39734969 -3.45620642 22.03807536 -4 26 C-4.31694824 26.62293945 -4.63389648 27.24587891 -4.96044922 27.88769531 C-6.12978978 30.26372502 -6.59427268 32.38202397 -7.0703125 34.984375 C-7.24433594 35.91894531 -7.41835938 36.85351562 -7.59765625 37.81640625 C-7.77167969 38.78449219 -7.94570313 39.75257813 -8.125 40.75 C-8.30675781 41.73355469 -8.48851562 42.71710938 -8.67578125 43.73046875 C-9.12260185 46.15270672 -9.56380188 48.57583055 -10 51 C-10.33 51 -10.66 51 -11 51 C-11.27057081 44.29143555 -10.27931981 38.23783313 -8.875 31.6875 C-8.65561768 30.64529297 -8.43623535 29.60308594 -8.21020508 28.52929688 C-6.09178359 18.80869662 -3.22684399 9.40331169 0 0 Z " fill="#67A560" transform="translate(355,355)"/>
<path d="M0 0 C0.86367188 -0.03738281 1.72734375 -0.07476563 2.6171875 -0.11328125 C5.125 0.3125 5.125 0.3125 7.4296875 1.75390625 C9.97422703 5.59416752 9.55760776 9.0675397 9.375 13.5625 C9.35695313 14.40296875 9.33890625 15.2434375 9.3203125 16.109375 C9.27330798 18.17757395 9.20156724 20.24518441 9.125 22.3125 C8.465 22.3125 7.805 22.3125 7.125 22.3125 C7.125 18.6825 7.125 15.0525 7.125 11.3125 C5.145 11.3125 3.165 11.3125 1.125 11.3125 C1.125 10.9825 1.125 10.6525 1.125 10.3125 C3.105 10.3125 5.085 10.3125 7.125 10.3125 C6.03715032 7.06266865 6.03715032 7.06266865 4.125 4.3125 C2.27212498 4.24023498 0.41666122 4.2286878 -1.4375 4.25 C-2.44941406 4.25902344 -3.46132813 4.26804687 -4.50390625 4.27734375 C-5.28636719 4.28894531 -6.06882812 4.30054688 -6.875 4.3125 C-6.875 3.3225 -6.875 2.3325 -6.875 1.3125 C-4.44538821 0.0976941 -2.71115884 0.07642733 0 0 Z " fill="#191817" transform="translate(603.875,790.6875)"/>
<path d="M0 0 C3.625 0.375 3.625 0.375 6.0625 2.1875 C7.625 4.375 7.625 4.375 7.625 7.375 C2.675 7.375 -2.275 7.375 -7.375 7.375 C-4.63081395 0.51453488 -4.63081395 0.51453488 0 0 Z " fill="#E3E3E3" transform="translate(688.375,793.625)"/>
<path d="M0 0 C0 0.66 0 1.32 0 2 C-0.60996826 2.25692627 -1.21993652 2.51385254 -1.84838867 2.77856445 C-4.62974195 3.95267872 -7.40862602 5.13253047 -10.1875 6.3125 C-11.14720703 6.71662109 -12.10691406 7.12074219 -13.09570312 7.53710938 C-14.49272461 8.13168945 -14.49272461 8.13168945 -15.91796875 8.73828125 C-16.77156982 9.09962158 -17.6251709 9.46096191 -18.50463867 9.83325195 C-21.09312271 10.97944249 -21.09312271 10.97944249 -23.69262695 12.70385742 C-24.45406006 13.13158447 -25.21549316 13.55931152 -26 14 C-26.66 13.67 -27.32 13.34 -28 13 C-5.85340314 -2.92670157 -5.85340314 -2.92670157 0 0 Z " fill="#30493B" transform="translate(232,777)"/>
<path d="M0 0 C1.32 0 2.64 0 4 0 C4.08736736 3.72901814 4.14051482 7.45777165 4.1875 11.1875 C4.21263672 12.24259766 4.23777344 13.29769531 4.26367188 14.38476562 C4.27333984 15.40634766 4.28300781 16.42792969 4.29296875 17.48046875 C4.3086792 18.41785889 4.32438965 19.35524902 4.34057617 20.32104492 C3.93229508 23.53256353 2.88830698 25.39378631 1 28 C-1.7110077 29.35550385 -3.91339169 29.16917207 -6.9375 29.1875 C-7.99839844 29.20167969 -9.05929687 29.21585938 -10.15234375 29.23046875 C-13 29 -13 29 -16 27 C-16 26.34 -16 25.68 -16 25 C-15.319375 25.165 -14.63875 25.33 -13.9375 25.5 C-7.1818082 26.67028997 -7.1818082 26.67028997 -1.125 24 C-0.42375 23.34 0.2775 22.68 1 22 C1.33 22 1.66 22 2 22 C2.33 15.07 2.66 8.14 3 1 C2.34 1 1.68 1 1 1 C1 1.66 1 2.32 1 3 C0.34 2.67 -0.32 2.34 -1 2 C-0.67 1.34 -0.34 0.68 0 0 Z " fill="#363636" transform="translate(546,791)"/>
<path d="M0 0 C0.99 0 1.98 0 3 0 C3.83719383 2.29032311 4.6698929 4.58210957 5.5 6.875 C5.85771484 7.85146484 5.85771484 7.85146484 6.22265625 8.84765625 C8 13.7734375 8 13.7734375 8 16 C8.66 16 9.32 16 10 16 C10.33 15.34 10.66 14.68 11 14 C10.67 16.64 10.34 19.28 10 22 C8.10644531 21.74560547 8.10644531 21.74560547 6 21 C4.99511719 19.28173828 4.99511719 19.28173828 4.296875 17.0703125 C4.0390625 16.27496094 3.78125 15.47960937 3.515625 14.66015625 C3.26296875 13.82355469 3.0103125 12.98695313 2.75 12.125 C2.481875 11.29613281 2.21375 10.46726562 1.9375 9.61328125 C0 3.49433992 0 3.49433992 0 0 Z " fill="#343334" transform="translate(411,791)"/>
<path d="M0 0 C1.32 0.33 2.64 0.66 4 1 C3.21302169 3.75142034 2.42062261 6.5010792 1.625 9.25 C1.40328125 10.02730469 1.1815625 10.80460938 0.953125 11.60546875 C0.73398437 12.35957031 0.51484375 13.11367188 0.2890625 13.890625 C0.09006348 14.58188477 -0.10893555 15.27314453 -0.31396484 15.98535156 C-1.03570436 18.10485138 -1.95647462 20.02156897 -3 22 C-4.32 22 -5.64 22 -7 22 C-7 20.02 -7 18.04 -7 16 C-6.01 16 -5.02 16 -4 16 C-3.87882812 15.34773437 -3.75765625 14.69546875 -3.6328125 14.0234375 C-2.71056011 9.21353658 -1.69832723 4.60974535 0 0 Z " fill="#3C3D3D" transform="translate(438,791)"/>
<path d="M0 0 C6.49013668 -0.36736623 6.49013668 -0.36736623 8.7121582 1.23364258 C10.34244046 3.469679 10.34827833 4.70217641 10.29296875 7.44921875 C10.28330078 8.29677734 10.27363281 9.14433594 10.26367188 10.01757812 C10.23853516 10.89865234 10.21339844 11.77972656 10.1875 12.6875 C10.17396484 13.58017578 10.16042969 14.47285156 10.14648438 15.39257812 C10.11114079 17.59566166 10.06180493 19.79752582 10 22 C9.01 22 8.02 22 7 22 C6.95101562 20.79601562 6.90203125 19.59203125 6.8515625 18.3515625 C6.77653657 16.77601802 6.70098867 15.20049834 6.625 13.625 C6.5940625 12.8309375 6.563125 12.036875 6.53125 11.21875 C6.48183579 6.63332625 6.48183579 6.63332625 4 3 C1.42938689 2.35232207 1.42938689 2.35232207 -1 2 C-0.67 1.34 -0.34 0.68 0 0 Z " fill="#282728" transform="translate(662,791)"/>
<path d="M0 0 C0.86625 0.4125 1.7325 0.825 2.625 1.25 C2.625 1.58 2.625 1.91 2.625 2.25 C1.67625 2.518125 0.7275 2.78625 -0.25 3.0625 C-3.62767273 3.99986588 -3.62767273 3.99986588 -5.375 7.25 C-5.66952584 9.63677076 -5.8678217 12.03626094 -6 14.4375 C-6.07476563 15.70980469 -6.14953125 16.98210938 -6.2265625 18.29296875 C-6.27554688 19.26878906 -6.32453125 20.24460937 -6.375 21.25 C-7.365 21.25 -8.355 21.25 -9.375 21.25 C-9.53716064 18.33110852 -9.65591202 15.42120775 -9.75 12.5 C-9.80027344 11.675 -9.85054687 10.85 -9.90234375 10 C-9.96008471 7.61337349 -9.92929966 5.57390272 -9.375 3.25 C-5.9277278 0.03254595 -4.67477003 -1.03883778 0 0 Z " fill="#2E2E2D" transform="translate(663.375,791.75)"/>
<path d="M0 0 C0 3.4415433 -0.66695338 4.42336207 -2.484375 7.2734375 C-3.00773437 8.0984375 -3.53109375 8.9234375 -4.0703125 9.7734375 C-4.62460937 10.63195312 -5.17890625 11.49046875 -5.75 12.375 C-6.28882813 13.22578125 -6.82765625 14.0765625 -7.3828125 14.953125 C-12.93081856 23.64049058 -12.93081856 23.64049058 -16 27 C-16.66 27 -17.32 27 -18 27 C-18.99 27.66 -19.98 28.32 -21 29 C-19.35228166 25.25436706 -16.95148702 22.19185714 -14.4375 19 C-13.54231609 17.8507685 -12.64780097 16.70101579 -11.75390625 15.55078125 C-11.29902832 14.96635254 -10.84415039 14.38192383 -10.37548828 13.77978516 C-8.1791023 10.93781607 -6.02529537 8.06441692 -3.875 5.1875 C-3.12992187 4.19105469 -2.38484375 3.19460938 -1.6171875 2.16796875 C-1.08351563 1.45253906 -0.54984375 0.73710937 0 0 Z " fill="#D3E7D4" transform="translate(427,351)"/>
<path d="M0 0 C3.64987906 0.05230718 4.61155314 0.27981779 7.75 2.4375 C10.06677426 5.8402622 10.51038724 8.301583 10.75 12.375 C8.11 12.375 5.47 12.375 2.75 12.375 C2.75 12.045 2.75 11.715 2.75 11.375 C4.4 11.045 6.05 10.715 7.75 10.375 C6.63145414 6.64885847 6.63145414 6.64885847 3.75 4.375 C-1.57967208 4.03407959 -1.57967208 4.03407959 -6.25 6.375 C-5.14552494 0.22149611 -5.14552494 0.22149611 0 0 Z " fill="#404040" transform="translate(688.25,790.625)"/>
<path d="M0 0 C0.33 0 0.66 0 1 0 C1 1.65 1 3.3 1 5 C5.95 5 10.9 5 16 5 C15.67 3.35 15.34 1.7 15 0 C16.32 0.33 17.64 0.66 19 1 C19 2.98 19 4.96 19 7 C13.06 7 7.12 7 1 7 C1 7.66 1 8.32 1 9 C0.34 9 -0.32 9 -1 9 C-1.09765625 2.84765625 -1.09765625 2.84765625 -1 1 C-0.67 0.67 -0.34 0.34 0 0 Z " fill="#262525" transform="translate(447,796)"/>
<path d="M0 0 C3.5625 0.25 3.5625 0.25 6.5625 2.25 C6.5625 3.57 6.5625 4.89 6.5625 6.25 C2.2725 6.25 -2.0175 6.25 -6.4375 6.25 C-4.96527778 0.36111111 -4.96527778 0.36111111 0 0 Z " fill="#F4F4F5" transform="translate(455.4375,793.75)"/>
<path d="M0 0 C0.66 0.33 1.32 0.66 2 1 C-3.92704727 8.53049967 -10.09518644 15.35465752 -17 22 C-17.99 21.67 -18.98 21.34 -20 21 C-19.45472656 20.55011719 -18.90945313 20.10023438 -18.34765625 19.63671875 C-12.87102392 14.96519818 -8.30714614 9.96742668 -3.84765625 4.3203125 C-2 2 -2 2 0 0 Z " fill="#242D2A" transform="translate(640,426)"/>
<path d="M0 0 C0.33 0 0.66 0 1 0 C1.33 4.29 1.66 8.58 2 13 C2.33 11.35 2.66 9.7 3 8 C3.33 8 3.66 8 4 8 C4 12.62 4 17.24 4 22 C2.68 22 1.36 22 0 22 C0 14.74 0 7.48 0 0 Z " fill="#626261" transform="translate(639,791)"/>
<path d="M0 0 C0.33 0 0.66 0 1 0 C0.67 2.31 0.34 4.62 0 7 C5.61 7 11.22 7 17 7 C17 7.33 17 7.66 17 8 C11.29309366 8.99250545 5.78591511 9.10477512 0 9 C0 9.66 0 10.32 0 11 C-0.66 11 -1.32 11 -2 11 C-2.05399736 9.54207116 -2.09279177 8.08357288 -2.125 6.625 C-2.15980469 5.40683594 -2.15980469 5.40683594 -2.1953125 4.1640625 C-2 2 -2 2 0 0 Z " fill="#1A1A1A" transform="translate(681,794)"/>
<path d="M0 0 C0.66 0.33 1.32 0.66 2 1 C0.75590105 2.92050226 -0.49553435 4.83625314 -1.75 6.75 C-2.44609375 7.81734375 -3.1421875 8.8846875 -3.859375 9.984375 C-5.73853132 12.63165361 -7.62795543 14.7989136 -10 17 C-10.33 16.34 -10.66 15.68 -11 15 C-11.66 14.67 -12.32 14.34 -13 14 C-12.14535156 13.15695312 -11.29070313 12.31390625 -10.41015625 11.4453125 C-9.29413953 10.33867407 -8.17826128 9.23189598 -7.0625 8.125 C-6.49853516 7.56941406 -5.93457031 7.01382812 -5.35351562 6.44140625 C-2.30139972 3.5078429 -2.30139972 3.5078429 0 0 Z " fill="#1B211F" transform="translate(635,415)"/>
<path d="M0 0 C0.97646484 0.00322266 1.95292969 0.00644531 2.95898438 0.00976562 C3.96638672 0.01814453 4.97378906 0.02652344 6.01171875 0.03515625 C7.03845703 0.03966797 8.06519531 0.04417969 9.12304688 0.04882812 C11.64849757 0.06057441 14.1738278 0.0770006 16.69921875 0.09765625 C16.69921875 0.42765625 16.69921875 0.75765625 16.69921875 1.09765625 C15.85617187 1.23042969 15.013125 1.36320312 14.14453125 1.5 C13.04882812 1.67660156 11.953125 1.85320312 10.82421875 2.03515625 C9.73367188 2.20917969 8.643125 2.38320313 7.51953125 2.5625 C4.76100329 2.95316784 4.76100329 2.95316784 2.69921875 4.09765625 C2.69921875 3.43765625 2.69921875 2.77765625 2.69921875 2.09765625 C-2.25078125 2.42765625 -7.20078125 2.75765625 -12.30078125 3.09765625 C-8.87398852 -0.32913648 -4.64941284 -0.02718955 0 0 Z " fill="#4A6955" transform="translate(489.30078125,447.90234375)"/>
<path d="M0 0 C0.33 0 0.66 0 1 0 C1.33 1.65 1.66 3.3 2 5 C2.66 3.68 3.32 2.36 4 1 C4 5.95 4 10.9 4 16 C2.68 16 1.36 16 0 16 C0 10.72 0 5.44 0 0 Z " fill="#5F5F5F" transform="translate(332,797)"/>
<path d="M0 0 C0 0.66 0 1.32 0 2 C-1.0725 2.226875 -2.145 2.45375 -3.25 2.6875 C-8.9128895 4.66951132 -10.38769852 7.77539704 -13 13 C-13 9.04 -13 5.08 -13 1 C-12.67 1.99 -12.34 2.98 -12 4 C-11.34 4 -10.68 4 -10 4 C-9.67 3.01 -9.34 2.02 -9 1 C-6.04335481 -0.4783226 -3.25770263 -0.06032783 0 0 Z " fill="#29292A" transform="translate(372,791)"/>
<path d="M0 0 C2.5 1.5 2.5 1.5 4 3 C0.90521121 4.03159626 -0.52631393 3.97482862 -3.6875 3.5625 C-4.49574219 3.46066406 -5.30398438 3.35882812 -6.13671875 3.25390625 C-6.75160156 3.17011719 -7.36648438 3.08632813 -8 3 C-8.33 4.32 -8.66 5.64 -9 7 C-9 6.01 -9 5.02 -9 4 C-9.66 4 -10.32 4 -11 4 C-11.33 5.32 -11.66 6.64 -12 8 C-12.25 5.6875 -12.25 5.6875 -12 3 C-8.86194892 -0.79181172 -4.56893374 -0.73028039 0 0 Z " fill="#2B2A2B" transform="translate(735,791)"/>
<path d="M0 0 C5.94 0 11.88 0 18 0 C18 0.66 18 1.32 18 2 C12.72 2 7.44 2 2 2 C2 5.3 2 8.6 2 12 C1.67 12 1.34 12 1 12 C0.67 8.04 0.34 4.08 0 0 Z " fill="#2C2B2B" transform="translate(292,784)"/>
<path d="M0 0 C0 0.66 0 1.32 0 2 C-2.54115002 2.95972174 -5.08289457 3.91781494 -7.625 4.875 C-8.33785156 5.14441406 -9.05070312 5.41382813 -9.78515625 5.69140625 C-11.19519415 6.22178748 -12.60697075 6.74757093 -14.02050781 7.26855469 C-15.77676923 7.91751364 -17.52569602 8.58624597 -19.2734375 9.2578125 C-22.14624879 10.03980984 -23.23610307 9.82540717 -26 9 C-22.04366575 7.4946891 -18.08461633 5.99665407 -14.125 4.5 C-12.99707031 4.07074219 -11.86914062 3.64148438 -10.70703125 3.19921875 C-9.63066406 2.79316406 -8.55429687 2.38710937 -7.4453125 1.96875 C-5.95281982 1.40317383 -5.95281982 1.40317383 -4.43017578 0.82617188 C-2 0 -2 0 0 0 Z " fill="#5F985B" transform="translate(520,216)"/>
<path d="M0 0 C4.62 0 9.24 0 14 0 C14 0.33 14 0.66 14 1 C10.7 1 7.4 1 4 1 C3.80053781 5.28843701 4.40365993 8.06236117 6 12 C5.67 12.99 5.34 13.98 5 15 C4.16013916 13.06532058 3.32831973 11.12714871 2.5 9.1875 C2.0359375 8.10855469 1.571875 7.02960937 1.09375 5.91796875 C0 3 0 3 0 0 Z " fill="#569A49" transform="translate(404,679)"/>
<path d="M0 0 C1.258125 -0.020625 2.51625 -0.04125 3.8125 -0.0625 C4.52019531 -0.07410156 5.22789062 -0.08570313 5.95703125 -0.09765625 C8 0 8 0 11 1 C11 1.66 11 2.32 11 3 C11.99 3 12.98 3 14 3 C13.67 4.65 13.34 6.3 13 8 C12.154375 7.195625 11.30875 6.39125 10.4375 5.5625 C7.1484842 2.78371338 4.31370396 2.25882224 0 2 C0 1.34 0 0.68 0 0 Z " fill="#252525" transform="translate(534,791)"/>
<path d="M0 0 C7.50769231 -0.36923077 7.50769231 -0.36923077 10 1.5 C10.495 2.2425 10.495 2.2425 11 3 C10.67 3.99 10.34 4.98 10 6 C8.5164999 5.57742724 7.03823576 5.13643678 5.5625 4.6875 C4.73878906 4.44386719 3.91507813 4.20023438 3.06640625 3.94921875 C2.04353516 3.47935547 2.04353516 3.47935547 1 3 C0.67 2.01 0.34 1.02 0 0 Z " fill="#2D2D2D" transform="translate(510,791)"/>
<path d="M0 0 C4.62 0 9.24 0 14 0 C13.67 0.66 13.34 1.32 13 2 C9.7 1.67 6.4 1.34 3 1 C2.67 1.99 2.34 2.98 2 4 C1.34 4 0.68 4 0 4 C-0.103125 4.94875 -0.20625 5.8975 -0.3125 6.875 C-1 10 -1 10 -4 12 C-3.52309796 10.37433394 -3.04340334 8.74948689 -2.5625 7.125 C-2.29566406 6.22007812 -2.02882813 5.31515625 -1.75390625 4.3828125 C-1 2 -1 2 0 0 Z " fill="#67A45C" transform="translate(446,679)"/>
<path d="M0 0 C0 4.06772485 -1.54175504 5.09653495 -4.25 8.0625 C-5.03890625 8.94035156 -5.8278125 9.81820313 -6.640625 10.72265625 C-8.74033941 12.74936735 -10.32636212 13.91460114 -13 15 C-11.38989473 10.92623969 -8.46177729 8.23492931 -5.375 5.25 C-4.859375 4.74339844 -4.34375 4.23679687 -3.8125 3.71484375 C-2.54616661 2.47196098 -1.2736856 1.23534724 0 0 Z " fill="#23352A" transform="translate(626,299)"/>
<path d="M0 0 C0.66 0 1.32 0 2 0 C2 0.99 2 1.98 2 3 C2.66 3 3.32 3 4 3 C3.34 6.63 2.68 10.26 2 14 C1.34 13.67 0.68 13.34 0 13 C0 8.71 0 4.42 0 0 Z " fill="#161616" transform="translate(640,791)"/>
<path d="M0 0 C1.5 1.125 1.5 1.125 3 3 C3.375 6.0625 3.375 6.0625 3 9 C2.01 9.66 1.02 10.32 0 11 C-0.66 10.67 -1.32 10.34 -2 10 C-2 7.03 -2 4.06 -2 1 C-1.34 0.67 -0.68 0.34 0 0 Z " fill="#4C9446" transform="translate(388,372)"/>
<path d="M0 0 C1.875 0.25 1.875 0.25 4 1 C6.11103658 3.95545121 6.19785783 6.43855901 6 10 C3.36 10 0.72 10 -2 10 C-2 9.67 -2 9.34 -2 9 C-0.35 8.67 1.3 8.34 3 8 C2.505 7.05125 2.01 6.1025 1.5 5.125 C0 2 0 2 0 0 Z " fill="#363535" transform="translate(693,793)"/>
<path d="M0 0 C-0.66 1.32 -1.32 2.64 -2 4 C-2.66 4 -3.32 4 -4 4 C-4.20625 4.556875 -4.4125 5.11375 -4.625 5.6875 C-6.55000774 8.92501302 -9.03850902 10.68231141 -12 13 C-11.46960703 8.942959 -9.42356448 7.05155434 -6.5625 4.25 C-5.75941406 3.45078125 -4.95632813 2.6515625 -4.12890625 1.828125 C-2 0 -2 0 0 0 Z " fill="#242E28" transform="translate(439,442)"/>
<path d="M0 0 C0 0.66 0 1.32 0 2 C-3.4019487 4.09350689 -6.05272412 4.17942163 -10 4 C-10 3.01 -10 2.02 -10 1 C-8.71073008 0.63720544 -7.41846728 0.28503302 -6.125 -0.0625 C-5.40570313 -0.25972656 -4.68640625 -0.45695313 -3.9453125 -0.66015625 C-2 -1 -2 -1 0 0 Z " fill="#1E3927" transform="translate(232,777)"/>
<path d="M0 0 C0.91007813 0.00902344 1.82015625 0.01804687 2.7578125 0.02734375 C3.45648437 0.03894531 4.15515625 0.05054688 4.875 0.0625 C2.875 3.0625 2.875 3.0625 0.4921875 3.57421875 C-0.41273438 3.63222656 -1.31765625 3.69023438 -2.25 3.75 C-3.61511719 3.84861328 -3.61511719 3.84861328 -5.0078125 3.94921875 C-6.05582031 4.00529297 -6.05582031 4.00529297 -7.125 4.0625 C-7.125 3.0725 -7.125 2.0825 -7.125 1.0625 C-4.60024538 -0.19987731 -2.81299534 -0.03606404 0 0 Z " fill="#424343" transform="translate(604.125,790.9375)"/>
<path d="M0 0 C0.66 0.33 1.32 0.66 2 1 C1.24074219 1.61488281 0.48148437 2.22976563 -0.30078125 2.86328125 C-1.29464844 3.67152344 -2.28851563 4.47976563 -3.3125 5.3125 C-4.29863281 6.11300781 -5.28476562 6.91351563 -6.30078125 7.73828125 C-8.31602166 9.42688356 -10.19488009 11.09630699 -12 13 C-12.99 12.67 -13.98 12.34 -15 12 C-13.06401165 10.37316948 -11.12629031 8.74848531 -9.1875 7.125 C-8.64029297 6.66480469 -8.09308594 6.20460938 -7.52929688 5.73046875 C-5.08054339 3.68242038 -2.65921675 1.77281117 0 0 Z " fill="#5CA354" transform="translate(430,260)"/>
<path d="M0 0 C1.32 0 2.64 0 4 0 C5.25 7.625 5.25 7.625 3 11 C3 10.34 3 9.68 3 9 C2.01 9.66 1.02 10.32 0 11 C-0.99 11 -1.98 11 -3 11 C-3 10.34 -3 9.68 -3 9 C-2.195625 8.566875 -1.39125 8.13375 -0.5625 7.6875 C2.24282331 6.23212941 2.24282331 6.23212941 2.8125 3.3125 C2.874375 2.549375 2.93625 1.78625 3 1 C2.01 0.67 1.02 0.34 0 0 Z " fill="#3C3D3C" transform="translate(607,802)"/>
<path d="M0 0 C0.99 0.33 1.98 0.66 3 1 C2 4 2 4 0 5 C-2.3329866 5.04022391 -4.66706666 5.04320247 -7 5 C-7.33 4.34 -7.66 3.68 -8 3 C-6.865625 2.690625 -5.73125 2.38125 -4.5625 2.0625 C-1.21224901 1.37075469 -1.21224901 1.37075469 0 0 Z " fill="#1F2020" transform="translate(374,808)"/>
<path d="M0 0 C0.33 1.32 0.66 2.64 1 4 C-3.29 4.66 -7.58 5.32 -12 6 C-12 5.01 -12 4.02 -12 3 C-8.04 3 -4.08 3 0 3 C0 2.01 0 1.02 0 0 Z " fill="#3A3B3A" transform="translate(610,797)"/>
<path d="M0 0 C2.97 0.495 2.97 0.495 6 1 C6.33 3.31 6.66 5.62 7 8 C6.01 8.495 6.01 8.495 5 9 C4.731875 8.2575 4.46375 7.515 4.1875 6.75 C3.05770579 4.13363446 1.79106798 2.19812889 0 0 Z " fill="#222221" transform="translate(606,792)"/>
<path d="M0 0 C0 0.33 0 0.66 0 1 C-2.08047297 1.5321441 -4.16452293 2.05031786 -6.25 2.5625 C-7.41015625 2.85253906 -8.5703125 3.14257812 -9.765625 3.44140625 C-12.72090983 3.95179964 -14.24434101 4.02996165 -17 3 C-5.47835991 -1.77676538 -5.47835991 -1.77676538 0 0 Z " fill="#A7B5AE" transform="translate(550,479)"/>
<path d="M0 0 C3.63 0.66 7.26 1.32 11 2 C11 2.66 11 3.32 11 4 C9.741875 4.04125 8.48375 4.0825 7.1875 4.125 C6.47980469 4.14820313 5.77210938 4.17140625 5.04296875 4.1953125 C3 4 3 4 0 2 C0 1.34 0 0.68 0 0 Z " fill="#252625" transform="translate(723,809)"/>
<path d="M0 0 C0.66 0.66 1.32 1.32 2 2 C1.9375 4 1.9375 4 1 6 C-1.5625 7.25 -1.5625 7.25 -4 8 C-4.33 7.01 -4.66 6.02 -5 5 C-3.35 3.35 -1.7 1.7 0 0 Z " fill="#363637" transform="translate(403,805)"/>
<path d="M0 0 C0.33 0.66 0.66 1.32 1 2 C-1.20101889 6.27975895 -4.17942593 10.11218169 -7 14 C-7.33 13.34 -7.66 12.68 -8 12 C-6.6015625 9.43359375 -6.6015625 9.43359375 -4.625 6.4375 C-3.65433594 4.95056641 -3.65433594 4.95056641 -2.6640625 3.43359375 C-1 1 -1 1 0 0 Z " fill="#5FA455" transform="translate(377,314)"/>
<path d="M0 0 C-0.1875 2.375 -0.1875 2.375 -1 5 C-3.5625 6.3125 -3.5625 6.3125 -6 7 C-6.33 6.01 -6.66 5.02 -7 4 C-3.375 0 -3.375 0 0 0 Z " fill="#2F2F30" transform="translate(549,813)"/>
<path d="M0 0 C0.33 0 0.66 0 1 0 C0.67 2.64 0.34 5.28 0 8 C-1.32 7.67 -2.64 7.34 -4 7 C-4 5.35 -4 3.7 -4 2 C-3.01 2 -2.02 2 -1 2 C-0.67 1.34 -0.34 0.68 0 0 Z " fill="#212121" transform="translate(421,805)"/>
<path d="M0 0 C0.99 0.99 1.98 1.98 3 3 C2.67 3.99 2.34 4.98 2 6 C-0.0625 6.6875 -0.0625 6.6875 -2 7 C-2 6.34 -2 5.68 -2 5 C-3.98 5 -5.96 5 -8 5 C-8 4.67 -8 4.34 -8 4 C-4.535 3.505 -4.535 3.505 -1 3 C-0.67 2.01 -0.34 1.02 0 0 Z " fill="#4F4F4F" transform="translate(736,806)"/>
<path d="M0 0 C0.99 0.33 1.98 0.66 3 1 C2.67 4.96 2.34 8.92 2 13 C1.67 13 1.34 13 1 13 C0.63901937 11.02206479 0.28638652 9.04260427 -0.0625 7.0625 C-0.25972656 5.96035156 -0.45695312 4.85820313 -0.66015625 3.72265625 C-0.77230469 2.82417969 -0.88445312 1.92570313 -1 1 C-0.67 0.67 -0.34 0.34 0 0 Z " fill="#1A1919" transform="translate(333,794)"/>
<path d="M0 0 C-0.33 3.96 -0.66 7.92 -1 12 C-1.33 12 -1.66 12 -2 12 C-2.33 10.02 -2.66 8.04 -3 6 C-3.33 6 -3.66 6 -4 6 C-4 4.35 -4 2.7 -4 1 C-2 0 -2 0 0 0 Z " fill="#DDE6E2" transform="translate(453,377)"/>
<path d="M0 0 C0.66 0.33 1.32 0.66 2 1 C-0.97 4.3 -3.94 7.6 -7 11 C-7 7.22089522 -6.00296038 6.53893899 -3.5 3.8125 C-2.8503125 3.09707031 -2.200625 2.38164062 -1.53125 1.64453125 C-1.0259375 1.10183594 -0.520625 0.55914062 0 0 Z " fill="#2B302F" transform="translate(679,373)"/>
<path d="M0 0 C5.42857143 -0.36190476 5.42857143 -0.36190476 7.875 1.1875 C9.34781139 3.56036279 9.22223194 5.25913944 9 8 C7 5 7 5 7 3 C4.36 3 1.72 3 -1 3 C-0.67 2.01 -0.34 1.02 0 0 Z " fill="#2D3331" transform="translate(685,369)"/>
<path d="M0 0 C1.65 0 3.3 0 5 0 C4.67 1.98 4.34 3.96 4 6 C2.68 6 1.36 6 0 6 C0 4.02 0 2.04 0 0 Z " fill="#2B2B2B" transform="translate(431,807)"/>
<path d="M0 0 C0.99 0.99 1.98 1.98 3 3 C2.8125 6.625 2.8125 6.625 2 10 C1.01 10.495 1.01 10.495 0 11 C0 7.37 0 3.74 0 0 Z " fill="#1F1F1F" transform="translate(404,798)"/>
<path d="M0 0 C0.66 0.33 1.32 0.66 2 1 C1.09674384 2.32176485 0.17682097 3.63215066 -0.75 4.9375 C-1.26046875 5.66839844 -1.7709375 6.39929688 -2.296875 7.15234375 C-4.19177915 9.20805399 -5.27425729 9.62669176 -8 10 C-7.04367001 8.70684939 -6.08486149 7.41553147 -5.125 6.125 C-4.59132813 5.40570313 -4.05765625 4.68640625 -3.5078125 3.9453125 C-2 2 -2 2 0 0 Z " fill="#2A3330" transform="translate(640,426)"/>
<path d="M0 0 C0.99 0.33 1.98 0.66 3 1 C3 1.66 3 2.32 3 3 C0.42786866 4.61949011 -0.67669159 5.04408751 -3.75 4.625 C-4.4925 4.41875 -5.235 4.2125 -6 4 C-4 2.66666667 -2 1.33333333 0 0 Z " fill="#363636" transform="translate(695,808)"/>
<path d="M0 0 C2.97 0.33 5.94 0.66 9 1 C7.02 1.99 7.02 1.99 5 3 C6.65 3.33 8.3 3.66 10 4 C10 4.33 10 4.66 10 5 C6.63295715 5.2295711 4.58629732 5.33943529 1.625 3.625 C1.08875 3.08875 0.5525 2.5525 0 2 C0 1.34 0 0.68 0 0 Z " fill="#575758" transform="translate(362,809)"/>
<path d="M0 0 C0.66 0 1.32 0 2 0 C3.25 6.625 3.25 6.625 1 10 C0.63720544 8.71073008 0.28503302 7.41846728 -0.0625 6.125 C-0.35833984 5.04605469 -0.35833984 5.04605469 -0.66015625 3.9453125 C-1 2 -1 2 0 0 Z " fill="#4E4D4E" transform="translate(429,800)"/>
<path d="M0 0 C1.32 0.33 2.64 0.66 4 1 C4.625 4.375 4.625 4.375 5 8 C4.34 8.66 3.68 9.32 3 10 C1.5216774 7.04335481 1.93967217 4.25770263 2 1 C1.34 0.67 0.68 0.34 0 0 Z " fill="#313131" transform="translate(425,792)"/>
<path d="M0 0 C1.010625 0.0825 2.02125 0.165 3.0625 0.25 C3.7225 1.24 4.3825 2.23 5.0625 3.25 C4.0725 3.91 3.0825 4.57 2.0625 5.25 C1.4025 4.59 0.7425 3.93 0.0625 3.25 C-1.25497324 2.55251417 -2.58664193 1.88040043 -3.9375 1.25 C-2.9375 0.25 -2.9375 0.25 0 0 Z " fill="#2A2929" transform="translate(328.9375,790.75)"/>
<path d="M0 0 C1.4540625 0.0309375 1.4540625 0.0309375 2.9375 0.0625 C2.9375 1.0525 2.9375 2.0425 2.9375 3.0625 C0.6275 3.3925 -1.6825 3.7225 -4.0625 4.0625 C-4.0625 0.08290816 -4.0625 0.08290816 0 0 Z " fill="#343333" transform="translate(631.0625,790.9375)"/>
<path d="M0 0 C1.18414294 3.55242882 0.69535532 4.69830562 -0.4375 8.1875 C-0.72496094 9.08855469 -1.01242187 9.98960937 -1.30859375 10.91796875 C-1.53675781 11.60503906 -1.76492188 12.29210937 -2 13 C-2.99 12.67 -3.98 12.34 -5 12 C-3.41037341 7.96479403 -1.71767682 3.98188718 0 0 Z " fill="#C0CEC5" transform="translate(668,220)"/>
<path d="M0 0 C2.72869407 0.03287583 5.2966618 0.56397771 8 1 C8 1.33 8 1.66 8 2 C6.02 2 4.04 2 2 2 C1.67 3.32 1.34 4.64 1 6 C1 5.01 1 4.02 1 3 C0.34 3 -0.32 3 -1 3 C-1.33 4.32 -1.66 5.64 -2 7 C-2.125 4.625 -2.125 4.625 -2 2 C-1.34 1.34 -0.68 0.68 0 0 Z " fill="#616262" transform="translate(725,792)"/>
<path d="M0 0 C0.9075 0.391875 1.815 0.78375 2.75 1.1875 C2.75 1.5175 2.75 1.8475 2.75 2.1875 C-0.25 3.1875 -3.25 4.1875 -6.25 5.1875 C-6.58 4.1975 -6.91 3.2075 -7.25 2.1875 C-4.52596974 -0.53653026 -3.86366821 -0.96591705 0 0 Z " fill="#444444" transform="translate(663.25,791.8125)"/>
<path d="M0 0 C1.98 0 3.96 0 6 0 C6 0.99 6 1.98 6 3 C3.69 3.33 1.38 3.66 -1 4 C-0.67 2.68 -0.34 1.36 0 0 Z " fill="#313130" transform="translate(713,791)"/>
<path d="M0 0 C0.66 0.33 1.32 0.66 2 1 C0.35 3.64 -1.3 6.28 -3 9 C-4.32 8.67 -5.64 8.34 -7 8 C-4.69 5.36 -2.38 2.72 0 0 Z " fill="#2A3130" transform="translate(635,415)"/>
<path d="M0 0 C0 0.33 0 0.66 0 1 C-1.093125 1.309375 -2.18625 1.61875 -3.3125 1.9375 C-5.55407994 2.58337897 -7.7869351 3.2623117 -10 4 C-10 2.68 -10 1.36 -10 0 C-6.7169902 -1.6415049 -3.57454967 -0.51888624 0 0 Z " fill="#3E3E3F" transform="translate(398,793)"/>
<path d="M0 0 C3 4 3 4 2.8125 6 C1.98114911 8.0464022 0.98781641 10.02436719 0 12 C0 8.04 0 4.08 0 0 Z " fill="#232325" transform="translate(359,792)"/>
<path d="M0 0 C2 3 2 3 1.625 6.1875 C1.41875 7.115625 1.2125 8.04375 1 9 C0.01 8.34 -0.98 7.68 -2 7 C-1.125 2.25 -1.125 2.25 0 0 Z " fill="#2E2F2F" transform="translate(387,794)"/>
<path d="M0 0 C0.66 0 1.32 0 2 0 C2 1.65 2 3.3 2 5 C2.66 5 3.32 5 4 5 C4 5.66 4 6.32 4 7 C2.68 7.33 1.36 7.66 0 8 C0 5.36 0 2.72 0 0 Z " fill="#1D1E1E" transform="translate(473,791)"/>
<path d="M0 0 C1.32 0.99 2.64 1.98 4 3 C3.67 3.66 3.34 4.32 3 5 C-0.3 4.01 -3.6 3.02 -7 2 C-7 1.67 -7 1.34 -7 1 C-5.5459375 1.0309375 -5.5459375 1.0309375 -4.0625 1.0625 C-1.12534105 1.35618499 -1.12534105 1.35618499 0 0 Z " fill="#525050" transform="translate(461,792)"/>
<path d="M0 0 C2.475 0.99 2.475 0.99 5 2 C4.01 2.99 3.02 3.98 2 5 C-0.31 4.34 -2.62 3.68 -5 3 C-5 2.67 -5 2.34 -5 2 C-3.35 2 -1.7 2 0 2 C0 1.34 0 0.68 0 0 Z " fill="#403F40" transform="translate(372,791)"/>
<path d="M0 0 C0.66 0.66 1.32 1.32 2 2 C3.32 1.34 4.64 0.68 6 0 C6.99 0.99 7.98 1.98 9 3 C2.25 5.125 2.25 5.125 0 4 C0 2.68 0 1.36 0 0 Z " fill="#474648" transform="translate(320,791)"/>
<path d="M0 0 C0 0.66 0 1.32 0 2 C0.99 2.33 1.98 2.66 3 3 C1.02 3.66 -0.96 4.32 -3 5 C-3.66 4.01 -4.32 3.02 -5 2 C-2 0 -2 0 0 0 Z " fill="#274331" transform="translate(222,779)"/>
<path d="M0 0 C0.33 0 0.66 0 1 0 C0.88541307 1.43836751 0.75790884 2.87570966 0.625 4.3125 C0.55539062 5.11300781 0.48578125 5.91351562 0.4140625 6.73828125 C0 9 0 9 -2 12 C-3.12377697 8.69564916 -2.89554742 6.9493138 -1.5625 3.75 C-1.27503906 3.04359375 -0.98757813 2.3371875 -0.69140625 1.609375 C-0.46324219 1.07828125 -0.23507812 0.5471875 0 0 Z " fill="#438248" transform="translate(368,517)"/>
<path d="M0 0 C0.66 0.33 1.32 0.66 2 1 C-0.35519526 4.79448125 -2.9630133 6.20578369 -7 8 C-5.50902342 4.2047869 -3.24299151 2.38957269 0 0 Z " fill="#5C7163" transform="translate(412,492)"/>
<path d="M0 0 C2.64 0.66 5.28 1.32 8 2 C8 2.66 8 3.32 8 4 C6.02 4 4.04 4 2 4 C1.34 2.68 0.68 1.36 0 0 Z " fill="#232323" transform="translate(596,809)"/>
<path d="M0 0 C0.66 0 1.32 0 2 0 C3.4606285 2.64738916 4 3.89448334 4 7 C2.68 6.34 1.36 5.68 0 5 C0 3.35 0 1.7 0 0 Z " fill="#1C1C1C" transform="translate(724,795)"/>
<path d="M0 0 C2.31 0 4.62 0 7 0 C6.34 1.32 5.68 2.64 5 4 C3.02 3.34 1.04 2.68 -1 2 C-0.67 1.34 -0.34 0.68 0 0 Z " fill="#282827" transform="translate(340,791)"/>
<path d="M0 0 C0.33 0.99 0.66 1.98 1 3 C-0.40445835 5.2636564 -2.1967913 7.0208685 -4 9 C-4.33 8.34 -4.66 7.68 -5 7 C-3.35 4.69 -1.7 2.38 0 0 Z " fill="#25312A" transform="translate(410,473)"/>
<path d="M0 0 C0.66 0.33 1.32 0.66 2 1 C-2.39453125 5.00390625 -2.39453125 5.00390625 -4 6 C-4.99 5.67 -5.98 5.34 -7 5 C-4.69 3.35 -2.38 1.7 0 0 Z " fill="#1E2823" transform="translate(610,438)"/>
<path d="M0 0 C0.66 0.33 1.32 0.66 2 1 C0.02 2.98 -1.96 4.96 -4 7 C-4.99 6.67 -5.98 6.34 -7 6 C-4.69 4.02 -2.38 2.04 0 0 Z " fill="#202A26" transform="translate(594,410)"/>
<path d="M0 0 C-3.96697886 1.80317221 -7.6822542 2.49202991 -12 3 C-4.82142857 -1.78571429 -4.82142857 -1.78571429 0 0 Z " fill="#589752" transform="translate(506,223)"/>
<path d="M0 0 C0.33 0 0.66 0 1 0 C0.67 2.64 0.34 5.28 0 8 C-0.66 7.34 -1.32 6.68 -2 6 C-1.44444444 1.44444444 -1.44444444 1.44444444 0 0 Z " fill="#2B2B2B" transform="translate(681,794)"/>
<path d="M0 0 C0.99 0 1.98 0 3 0 C2.34 2.97 1.68 5.94 1 9 C0.67 9 0.34 9 0 9 C0 6.03 0 3.06 0 0 Z " fill="#172620" transform="translate(370,607)"/>
<path d="M0 0 C0 3 0 3 -1.875 5.1875 C-4 7 -4 7 -6 7 C-4.60667426 3.63279613 -3.0210714 2.0140476 0 0 Z " fill="#385240" transform="translate(422,484)"/>
</svg>
